<svg width="91" height="90" viewBox="0 0 91 90" fill="none" xmlns="http://www.w3.org/2000/svg">
<path d="M44.9094 0C21.9422 1.63815e-06 23.3765 9.95996 23.3765 9.95996L23.4021 20.2784H45.3191V23.3765H14.6967C14.6967 23.3765 0 21.7097 0 44.8838C-1.63808e-06 68.0579 12.8276 67.2361 12.8276 67.2361H20.4832V56.4824C20.4832 56.4824 20.0705 43.6548 33.106 43.6548H54.8438C54.8438 43.6548 67.0569 43.8523 67.0569 31.8514V12.0083C67.0569 12.0083 68.9112 0 44.9094 0ZM32.8243 6.93869C35.0049 6.93868 36.7674 8.70112 36.7674 10.8817C36.7674 13.0623 35.0049 14.8247 32.8243 14.8247C30.6437 14.8247 28.8813 13.0623 28.8813 10.8817C28.8813 8.70112 30.6437 6.93869 32.8243 6.93869Z" fill="#FF7A00"/>
<path d="M45.5615 90C68.5287 90 67.0945 80.04 67.0945 80.04L67.0689 69.7216H45.1519V66.6235H75.7743C75.7743 66.6235 90.471 68.2903 90.471 45.1162C90.471 21.9421 77.6434 22.7639 77.6434 22.7639H69.9878V33.5175C69.9878 33.5175 70.4004 46.3451 57.365 46.3451H35.6272C35.6272 46.3451 23.4141 46.1477 23.4141 58.1486V77.9917C23.4141 77.9917 21.5598 90 45.5615 90ZM57.6466 83.0613C55.466 83.0613 53.7036 81.2989 53.7036 79.1183C53.7036 76.9377 55.466 75.1753 57.6466 75.1753C59.8272 75.1753 61.5897 76.9377 61.5897 79.1183C61.5897 81.2989 59.8272 83.0613 57.6466 83.0613Z" fill="#FF7A00"/>
</svg>
