<svg width="101" height="90" viewBox="0 0 101 90" fill="none" xmlns="http://www.w3.org/2000/svg">
<path d="M30.1508 80.1413C26.3044 77.1146 22.2058 74.2204 19.4061 70.1407C13.5105 62.9429 8.97047 54.6133 5.86815 45.8549C3.99225 40.161 3.34593 34.0541 0.930909 28.5777C-1.59761 24.6052 1.36599 20.2544 5.72312 18.9933C7.66207 18.6213 11.0702 16.7864 6.9527 18.0979C3.26396 20.803 2.9077 15.6388 6.69102 15.3109C9.27629 14.9641 10.2221 12.8517 9.33935 10.9537C6.56491 9.14405 16.0611 7.16096 11.2815 4.45904C6.30638 -0.900675 18.2428 -1.93478 15.2981 4.16267C14.5982 8.84769 23.6403 3.29882 21.5406 8.71528C23.675 11.3163 29.5297 9.308 29.3815 12.9558C32.4901 13.1701 33.5558 15.7838 36.4752 15.9824C39.5019 17.3476 44.9783 18.4227 46.0061 21.8308C43.0109 24.2048 36.0654 16.9282 35.728 23.5018C36.636 33.2123 36.4027 43.2129 39.9527 52.46C41.6332 58.0561 45.7066 62.4637 49.3795 66.824C52.9012 71.0928 57.6713 74.1006 62.5266 76.6291C66.7891 78.6406 71.3859 79.971 76.0299 80.8097C77.9121 79.3689 81.2414 74.0123 84.1767 76.2697C84.3185 78.8108 78.344 81.579 83.8929 81.2984C87.156 80.3147 89.4166 83.8206 92.0996 80.6552C94.5745 83.5873 102.378 78.7856 100.622 84.7727C98.2412 86.3081 94.77 85.3812 92.3865 87.4935C88.455 85.5294 85.3243 89.2496 80.9734 88.7799C76.1402 89.6469 71.2251 89.9937 66.3257 90C58.2861 89.3694 50.0794 89.0983 42.434 86.2987C38.1241 85.047 33.9215 82.5941 30.1382 80.1381L30.1508 80.1413ZM36.9387 83.0828C41.1445 84.8988 45.262 86.8157 49.8651 87.3958C57.1795 88.411 64.7304 89.9811 72.07 88.5497C68.747 87.049 65.3136 89.133 62.0032 87.4778C58.0307 88.329 53.806 87.2571 49.7074 86.7306C45.1201 84.6876 40.1671 83.2814 35.8731 80.6268C30.5039 78.6658 38.6475 83.1427 40.0978 83.5053C43.4523 85.4096 36.409 82.5595 35.4128 81.7397C32.6005 80.1634 32.2442 80.4912 35.1353 82.0929L36.9009 83.0828H36.9387ZM28.9307 77.4268C33.0072 78.9401 28.9117 74.5577 27.0485 74.81C26.2224 73.3754 23.8862 72.4674 25.5351 71.6982C22.5715 72.726 22.4328 67.7887 21.0424 68.495C17.9086 67.505 19.8223 63.9991 16.0926 61.8426C15.7521 59.5726 12.3849 57.6084 11.313 54.1877C10.8401 52.4347 7.50759 47.4092 9.55374 52.0879C11.2941 56.5964 14.3586 60.4522 16.9123 64.3049C18.8922 67.9747 21.2316 71.8085 24.8384 74.1006C26.0553 75.2671 27.2282 77.0547 28.9433 77.4204L28.9307 77.4268ZM17.1897 64.5319C17.3316 63.9171 17.9338 65.8624 17.1897 64.5319V64.5319ZM33.8143 79.2333C34.716 78.8297 32.5154 78.7225 33.8143 79.2333V79.2333ZM36.0212 80.0404C35.7911 78.9275 35.0124 80.6646 36.0212 80.0404V80.0404ZM38.7957 81.1943C40.1135 79.9395 36.7621 80.4061 38.7957 81.1943V81.1943ZM43.5438 83.8426C44.3446 82.6604 40.9805 83.4013 43.5438 83.8426V83.8426ZM34.4322 77.4898C36.4815 76.1656 31.7839 77.4709 34.4322 77.4898V77.4898ZM36.5131 78.5302C36.45 77.8303 35.7722 78.8455 36.5131 78.5302V78.5302ZM46.8951 85.0123C48.5661 86.0653 56.6435 87.3201 51.5865 85.4442C50.7352 85.6208 42.207 83.0292 46.8951 85.0123ZM30.4125 72.1742C30.2548 71.4743 27.8209 71.3987 30.4125 72.1742V72.1742ZM35.2457 74.9928C36.5068 74.11 32.6352 74.315 35.2457 74.9928V74.9928ZM39.3443 77.515C41.1508 76.834 36.4185 76.8309 39.3443 77.515V77.515ZM28.4388 70.0272C30.3935 71.5279 36.3397 70.2164 31.434 69.1318C29.205 67.9432 24.1826 67.1298 27.6065 69.8475L28.4357 70.0272H28.4388ZM42.0588 78.3411C42.8785 76.9538 38.6349 77.5466 42.0588 78.3411V78.3411ZM37.9192 75.0527C42.7114 76.4084 33.8931 72.0261 36.7369 74.5483L37.3675 74.832L37.9192 75.0464V75.0527ZM46.2173 79.8449C50.7573 79.8891 42.1187 79.2144 46.2173 79.8449V79.8449ZM26.6922 67.4009C26.5156 66.556 25.573 67.4703 26.6922 67.4009V67.4009ZM53.8911 84.1485C54.011 82.6225 52.4093 85.2835 53.8911 84.1485V84.1485ZM34.4386 72.1364C34.1643 71.3324 33.0198 72.1049 34.4386 72.1364V72.1364ZM27.1241 66.8713C29.7283 66.7136 23.5615 65.7237 27.1241 66.8713V66.8713ZM18.4635 61.2783C18.1387 60.0298 15.6323 59.0335 18.4635 61.2783V61.2783ZM41.2012 75.7085C40.7283 75.1631 40.9805 75.8251 41.2012 75.7085V75.7085ZM55.3509 84.3944C55.3067 83.562 54.5816 84.7097 55.3509 84.3944V84.3944ZM39.9496 74.4159C40.2018 73.3439 37.7269 74.0911 39.9496 74.4159V74.4159ZM29.4067 67.732C31.3457 67.5271 26.3013 66.4236 29.4067 67.732V67.732ZM47.2388 78.814C50.2592 77.6159 44.2973 78.2307 47.2388 78.814V78.814ZM37.9633 72.5179C41.4409 72.9656 33.8238 70.1533 37.1972 72.2657L37.9633 72.5179ZM50.0542 79.9521C53.3016 78.0132 52.2296 84.5016 55.5653 80.5007C58.8536 78.0983 52.7278 83.4706 56.7759 80.9295C59.708 78.9685 64.0368 81.8595 66.7702 82.7991C68.7375 82.7045 70.6481 84.5016 72.6659 83.4076C76.5438 82.3608 65.074 81.8564 68.0818 80.0026C64.5317 81.0367 61.9086 78.773 60.1588 76.4967C56.1737 75.5761 51.5707 73.5394 49.5813 70.0146C48.771 68.6904 50.7478 70.2038 48.8814 68.0378C46.4853 65.9034 45.2872 63.4789 43.673 60.881C41.7498 59.8564 41.5197 56.8329 41.3274 60.7801C41.3431 58.2894 39.0038 56.609 38.4268 57.3058C38.4173 54.9097 40.9333 56.1077 39.1709 54.3359C38.7925 51.8452 37.544 49.2599 37.172 46.4476C36.5887 45.0919 37.09 42.1914 35.1858 45.259C34.4921 48.4969 34.9556 41.2802 36.037 43.6574C37.4558 41.2298 35.5263 41.5135 35.4506 41.8509C36.3744 39.8016 36.037 36.8947 35.2078 38.0045C35.6997 35.8291 35.9866 30.0122 34.4732 31.0432C35.3875 28.7732 36.2136 20.6485 32.2285 23.7445C30.6142 23.7666 27.8209 24.3309 26.4999 24.9867C30.6395 27.2693 26.0837 25.8127 24.3938 25.447C24.1731 27.5594 22.5022 26.6451 20.4213 26.6671C23.757 27.077 18.7977 30.0721 16.8902 28.9119C14.4058 30.0974 19.0341 33.061 16.9375 33.9784C17.1961 35.3562 13.1321 33.4803 13.4506 36.6709C11.0418 35.6557 13.1195 40.4542 14.327 38.8305C18.4256 39.9403 17.2118 42.4688 17.3159 44.8744C16.6475 46.2742 14.0181 41.5829 16.7294 41.8004C14.5856 38.3229 14.3649 40.5393 12.5835 42.1599C12.1737 42.2765 17.1235 44.4614 14.0149 45.5333C16.7484 45.9558 16.8272 48.3488 17.3821 49.8589C19.0215 51.5709 18.6842 47.9673 20.6515 50.026C19.4061 48.1974 14.0622 44.8649 18.3657 45.9274C18.3437 44.0862 17.587 42.5981 18.908 42.6328C20.2164 40.2682 17.5397 48.4654 20.4844 45.4577C21.2978 45.1014 21.5027 43.0931 22.9656 45.6468C25.0906 47.7403 23.7349 49.2536 20.7335 47.3367C21.2694 49.159 24.7469 49.8085 24.0912 52.6554C24.7848 55.1619 25.7527 54.2381 26.5976 54.0931C27.2282 56.527 27.638 54.7363 27.6696 53.5792C30.7025 54.2287 29.99 56.0226 30.9421 57.2742C33.0324 58.2201 27.947 50.8804 31.5412 55.0673C35.315 58.4723 32.9599 59.9005 29.5707 59.3551C31.7146 59.1817 32.4082 62.2556 35.088 62.1453C37.5346 63.3118 39.1866 67.7793 34.9745 65.916C33.5148 64.5981 28.3348 62.9713 32.5658 65.4746C36.4689 67.2843 39.5713 68.3625 43.3357 70.6357C46.0281 72.5273 47.1915 74.7595 48.213 75.1977C45.9493 76.2791 41.3904 74.3339 44.745 73.738C42.6326 73.3534 40.2554 72.2877 42.2795 74.9171C44.0009 76.3548 48.3738 76.2035 49.1588 76.3674C48.4968 77.8303 47.3523 77.9438 49.1841 78.0605C47.1411 79.1513 49.8398 79.3216 50.029 79.9427L50.0542 79.9521ZM45.8737 68.1482C44.6283 66.8461 44.3067 64.4121 45.653 66.5308C46.3466 66.8082 47.8599 70.5127 45.8737 68.1482ZM59.4936 76.7584C60.2692 76.7079 59.5157 77.3479 59.4936 76.7584V76.7584ZM43.9189 64.9197C43.8685 62.9524 44.3666 66.433 43.9189 64.9197V64.9197ZM42.5632 63.1006C40.9963 60.0739 44.5337 63.9518 42.5632 63.1006V63.1006ZM26.1625 51.7506C27.0831 51.5047 26.6165 53.3207 26.1625 51.7506V51.7506ZM39.215 58.8254C39.7825 56.7036 39.8456 60.6036 39.215 58.8254V58.8254ZM29.9931 52.4127C29.3437 51.2461 31.3488 53.5098 29.9931 52.4127V52.4127ZM37.9066 54.9475C36.4248 51.6276 38.9596 53.1347 38.2376 55.4898L37.9066 54.9475ZM24.2614 45.8486C23.6309 44.7577 22.5053 41.5608 22.8584 40.5835C23.1737 42.1725 26.2382 47.425 24.3591 42.7904C22.2846 38.881 26.8404 44.0578 27.3101 45.0352C27.5308 46.0031 26.0301 44.7704 27.0453 47.0467C25.1915 44.4551 25.9513 48.478 24.2646 45.8801L24.2614 45.8486ZM20.0462 42.9418C20.2196 40.4069 21.0109 44.6758 20.0462 42.9418V42.9418ZM21.9441 43.5975C22.849 41.6869 23.4764 46.2616 21.9441 43.5975V43.5975ZM17.3411 40.1295C15.771 38.5689 14.636 37.1343 17.4167 39.1616C18.4887 39.2026 15.0364 35.8922 17.6753 38.1086C20.4497 38.613 19.0436 42.658 17.3442 40.1263L17.3411 40.1295ZM19.7372 40.0664C20.6515 39.1616 20.2227 40.9555 19.7372 40.0664V40.0664ZM21.2127 40.5393C19.8255 37.9478 22.89 41.627 21.2127 40.5393V40.5393ZM18.2806 37.7397C13.7154 33.6726 24.0186 39.8615 19.0247 38.4963L18.2806 37.7397ZM31.3583 45.3379C29.3815 44.1556 30.8318 37.0019 31.5065 41.8919C33.4297 41.2708 31.3993 44.4204 32.8306 44.3889C32.6099 46.3751 31.9636 47.0908 31.3583 45.3347V45.3379ZM36.1946 48.1974C36.3838 46.0409 36.6045 49.6729 36.1946 48.1974V48.1974ZM35.356 47.3651C35.5767 46.4445 35.3749 48.4496 35.356 47.3651V47.3651ZM19.2075 36.4029C16.2754 32.3579 27.7295 40.4952 21.0866 37.4276C20.393 37.2447 19.5575 37.1816 19.2075 36.4029ZM28.524 41.3401C28.2465 37.9352 29.1419 41.9076 28.524 41.3401V41.3401ZM35.5956 45.8801C36.141 43.9412 35.6366 47.1633 35.5956 45.8801V45.8801ZM19.6584 34.858C21.4018 34.486 26.9097 37.9162 21.8495 35.8354C21.2915 35.2175 20.0966 35.4981 19.6584 34.858ZM34.6214 42.3175C34.8106 38.8337 35.6618 40.2367 34.6277 42.8219L34.6214 42.3175ZM20.9542 33.6474C21.6667 32.607 19.0688 28.9403 21.3262 32.3327C22.272 33.1083 24.1542 33.6316 22.5242 33.9595C25.0937 36.2295 21.8937 34.5743 20.9573 33.6442L20.9542 33.6474ZM33.8805 41.2329C34.3692 37.2605 34.3124 43.5565 33.8805 41.2329V41.2329ZM19.4724 29.9839C20.0146 29.7506 19.7561 30.709 19.4724 29.9839V29.9839ZM22.8458 31.9922C23.7128 30.1699 24.4474 34.0226 22.8458 31.9922V31.9922ZM32.3577 37.2825C32.3514 36.5889 32.5374 38.3009 32.3577 37.2825V37.2825ZM31.806 36.0656C30.4881 32.8087 33.0671 37.7901 31.806 36.0656V36.0656ZM30.9957 33.928C30.775 32.5817 31.7524 35.6179 30.9957 33.928V33.928ZM32.3136 31.7841C31.4056 30.1888 33.458 24.7534 33.6882 28.1269C32.7329 30.7563 33.4139 32.2255 34.076 28.6944C35.3056 25.9199 33.8112 34.1707 32.3104 31.7841H32.3136ZM33.6693 23.6941C34.0634 23.2086 33.7576 24.2774 33.6693 23.6941V23.6941ZM31.4024 68.3089C30.8665 67.836 31.4718 68.6053 31.4024 68.3089V68.3089ZM36.0685 70.6672C38.6633 71.3356 38.6538 70.2637 36.305 69.9421C35.0439 68.7692 31.0651 67.5239 34.6277 69.797C34.861 70.4276 35.6051 70.3803 36.0685 70.6641V70.6672ZM26.8624 64.5508C28.2907 65.6228 32.2442 67.5712 28.8991 64.9607C30.0278 63.6491 26.7395 62.9492 27.8272 62.0728C25.0528 60.3703 25.636 60.4964 27.5813 60.5815C24.2456 59.0902 28.0636 59.2037 27.8839 58.4376C26.5976 58.1854 21.4964 56.1676 24.4979 58.6016C21.446 57.0472 23.7727 59.1817 22.849 58.9578C19.6962 58.1066 25.6234 61.335 22.354 60.5342C24.1416 61.953 27.1714 64.1694 23.1106 62.0349C22.5747 62.8042 26.0175 63.9739 26.894 64.5571L26.8624 64.5508ZM31.7398 67.3568C37.667 69.2674 28.8298 65.0238 31.7398 67.3568V67.3568ZM56.7097 82.4838C56.7854 81.3047 55.8995 83.4927 56.7097 82.4838V82.4838ZM59.2761 83.5652C60.6444 82.241 59.3328 85.6776 61.5461 83.2405C61.5681 81.497 61.483 80.466 59.0049 82.5847C58.3208 82.963 58.0181 84.5709 59.2792 83.562L59.2761 83.5652ZM18.5328 57.9679C18.1135 56.3158 15.5881 56.3221 18.5328 57.9679V57.9679ZM21.2757 59.7649C20.2574 58.0782 17.6437 58.2358 21.2757 59.7649V59.7649ZM36.8693 69.1696C38.3921 70.5253 43.8622 70.1628 38.7169 69.3367C37.9602 68.2112 33.8837 68.4855 36.8693 69.1696ZM58.3019 82.4113C60.6444 80.444 56.0319 83.2878 58.3019 82.4113V82.4113ZM63.1761 85.7595C63.1918 85.129 62.1672 86.0338 63.1761 85.7595V85.7595ZM63.1855 84.8767C65.7802 82.1338 60.6728 85.0344 63.1855 84.8767V84.8767ZM11.7922 52.3244C9.58526 49.1716 10.4176 47.7529 8.28632 45.1771C7.88277 43.2066 4.62911 38.736 6.60274 43.4746C8.41243 46.249 8.9484 50.5368 11.7922 52.3339V52.3244ZM62.3626 83.9971C67.1391 80.9137 60.4079 82.654 62.3626 83.9971V83.9971ZM66.0072 85.4253C68.4033 83.376 64.4939 84.9966 66.0072 85.4253V85.4253ZM17.7194 54.484C18.4036 53.4657 15.9539 54.3516 17.7194 54.484V54.484ZM65.2474 84.4511C67.5616 82.9599 64.7115 83.19 64.8281 84.5867L65.2474 84.4511ZM33.8395 64.6517C33.7607 63.6428 32.6162 64.7368 33.8395 64.6517V64.6517ZM35.7785 65.7678C35.1605 64.5193 34.8326 65.9633 35.7785 65.7678V65.7678ZM68.9614 85.4569C71.925 83.313 67.1643 85.047 68.3403 85.8667L68.9614 85.4569ZM67.8264 84.9083C70.2446 82.8842 65.2726 85.8037 67.8264 84.9083V84.9083ZM73.6275 88.7704C75.248 87.6859 71.657 88.4236 73.6275 88.7704V88.7704ZM19.2107 53.7431C21.3861 54.2287 27.8966 59.0965 24.0565 54.0805C22.0892 53.4972 23.2683 48.6893 21.26 49.5405C22.6062 51.7916 22.3634 52.75 19.5386 51.3313C15.9854 49.5972 17.5429 52.1888 18.2365 52.9077C17.2906 53.1284 19.4881 53.7274 19.2138 53.7463L19.2107 53.7431ZM9.31097 45.9243C9.69876 44.3164 5.72627 37.065 7.43507 42.2923C8.04986 43.3863 7.98681 45.4608 9.31097 45.9243V45.9243ZM27.4898 57.1324C26.3675 56.196 27.4362 57 27.4898 57.1324V57.1324ZM30.2454 57.7755C30.2454 56.073 27.1998 57.0819 30.2454 57.7755V57.7755ZM54.1339 72.8332C53.6768 71.6666 52.3368 72.8079 54.1339 72.8332V72.8332ZM55.2815 73.6718C55.1113 73.0192 54.651 73.7979 55.2815 73.6718V73.6718ZM64.7493 79.6368C65.6636 78.9653 63.6143 79.5486 64.7493 79.6368V79.6368ZM14.2514 47.1917C16.8556 46.1828 11.4612 46.4729 14.2514 47.1917V47.1917ZM52.0216 70.9888C51.99 69.3021 50.36 71.4081 52.0216 70.9888V70.9888ZM13.2204 44.7893C14.8914 44.2218 11.6755 44.4172 13.2204 44.7893V44.7893ZM18.0757 47.1412C18.0441 46.5864 17.5618 47.3525 18.0757 47.1412V47.1412ZM77.3099 83.4612C79.4601 83.0261 84.3658 84.5552 85.1603 82.8937C82.5435 82.8306 76.1213 81.0493 75.8187 83.3161L76.3862 83.4107L77.3099 83.4675V83.4612ZM19.6205 47.5322C19.6584 45.8234 18.2901 47.4691 19.6205 47.5322V47.5322ZM6.85181 38.6729C6.2717 35.4192 4.64487 38.1811 6.85181 38.6729V38.6729ZM9.89424 39.439C9.93207 38.3923 7.10719 38.4995 9.89424 39.439V39.439ZM11.6346 40.2903C11.1301 39.8804 11.2436 40.8042 11.6346 40.2903V40.2903ZM22.5841 47.3115C23.1012 46.8386 21.364 46.9647 22.5841 47.3115V47.3115ZM10.4775 38.3576C10.1811 35.8985 6.94639 37.9887 10.4775 38.3576V38.3576ZM4.23501 34.3063C4.14673 33.1713 3.62653 34.7351 4.23501 34.3063V34.3063ZM5.16508 33.6064C5.01375 32.2602 4.36743 33.7766 5.16508 33.6064V33.6064ZM10.2946 36.6646C12.4637 35.8133 6.34422 34.899 9.85325 36.5069L10.2946 36.6646ZM78.9557 79.0914C80.3429 77.8177 77.1901 78.6973 78.9557 79.0914V79.0914ZM87.2475 83.3886C87.8055 81.7492 85.8445 83.6093 87.2475 83.3886V83.3886ZM10.8148 33.991C11.045 32.3989 9.09343 34.3063 10.8148 33.991V33.991ZM3.51303 29.1042C3.12839 26.85 3.18514 22.909 6.93063 24.2395C1.92718 25.2358 10.3987 30.4631 9.32674 26.333C11.4328 26.437 13.4443 25.0876 12.3376 27.1306C16.4898 26.6798 19.3589 23.0793 23.3692 23.5869C26.5219 23.1707 29.9017 22.8618 33.2689 21.6006C36.0339 21.402 38.6916 18.4258 37.1783 16.6603C33.4076 16.345 29.4603 16.8116 25.2924 17.6439C20.6736 18.6024 16.4804 20.4278 11.8206 21.2066C7.28059 21.8182 12.7349 22.887 11.4328 23.1297C9.06821 23.9495 14.2608 24.5043 11.127 25.3745C9.19117 25.0056 7.17655 24.3404 8.00573 22.3006C3.6549 22.8681 -0.169408 24.6714 3.27026 29.0979L3.52249 29.1011L3.51303 29.1042ZM14.0054 23.7918C15.0238 20.0337 19.4692 26.8815 15.6764 24.2963C15.2256 23.9558 14.4784 23.6815 14.0054 23.7918ZM14.2041 21.9695C15.6764 20.8755 14.986 22.5843 14.2041 21.9695V21.9695ZM16.0737 22.0011C16.2092 20.2733 20.3551 22.9469 16.7578 22.6221L16.0737 22.0011ZM18.6274 20.9732C19.5638 19.8792 18.8985 21.9411 18.6274 20.9732V20.9732ZM19.2832 20.5319C20.8407 18.6623 28.0889 19.3338 22.7512 20.349C21.3325 19.2771 20.2385 20.9796 19.2832 20.5319ZM28.7415 19.0721C28.5082 13.9646 33.4454 20.885 28.7415 19.0721V19.0721ZM31.4277 19.0564C32.405 16.4837 35.2425 18.0223 31.8848 18.5393C31.9573 18.8136 31.7839 19.8698 31.4277 19.0564ZM9.75867 32.6984C12.6907 30.9013 6.64688 31.1409 9.75867 32.6984V32.6984ZM11.9278 33.329C12.9556 32.2349 9.72083 32.8876 11.9278 33.329V33.329ZM5.54026 28.7417C7.21123 27.449 3.55401 28.253 5.54026 28.7417V28.7417ZM92.1469 82.922C92.1941 81.4276 90.8668 83.5936 92.1469 82.922V82.922ZM83.3506 76.916C83.6029 75.1977 82.2156 77.0642 83.3506 76.916V76.916ZM94.5745 83.5053C96.917 83.5148 101.675 82.7802 96.5765 82.7802C95.7757 82.9063 91.9104 82.8747 94.5745 83.5053ZM13.8415 32.2192C15.7395 32.0931 16.8051 30.1289 13.4726 30.2392C8.30209 29.7033 18.0315 32.0111 12.8421 31.349C12.1422 31.8125 13.832 32.3453 13.873 32.216L13.8415 32.2192ZM15.5125 33.0641C15.3138 31.8472 14.9261 33.7104 15.5125 33.0641V33.0641ZM17.4987 27.7801C18.3184 26.7586 16.3637 27.5058 17.4987 27.7801V27.7801ZM11.1932 17.2372C14.5793 16.0865 19.2075 14.7938 20.8091 17.8047C19.1823 15.85 20.1533 13.9205 21.6919 16.7832C23.8673 19.6775 24.9519 15.4654 23.5394 14.4943C25.1473 16.4932 26.9759 17.439 24.6177 14.6204C27.1872 11.5307 19.4787 15.024 17.7257 14.9893C16.8839 15.3676 9.02407 16.9945 11.1995 17.2372H11.1932ZM13.1794 13.4381C15.1089 11.9815 19.857 14.3051 16.8114 11.9879C16.5119 11.7262 10.1433 13.7439 13.1794 13.4381ZM20.2164 13.7282C22.4738 13.7849 19.239 10.6921 21.9315 12.095C21.4901 10.6511 18.7977 10.3831 17.4798 9.80298C16.7357 11.1208 18.9931 13.7439 20.2133 13.7282H20.2164ZM14.4153 7.34067C15.1972 6.28134 13.0439 7.87664 14.4153 7.34067V7.34067ZM17.278 8.02797C20.9195 7.5456 16.3511 6.46104 16.5434 7.99014L17.278 8.02797ZM11.9057 3.83479C9.3425 0.486544 16.7294 4.39598 14.1221 0.893251C11.9278 -0.850231 9.82487 2.86058 11.9057 3.83479V3.83479ZM44.8017 21.5534C45.9777 19.4725 39.9464 18.7474 44.0135 20.8156C44.3855 20.9417 44.3036 21.6984 44.8017 21.5534Z" fill="#FF7A00"/>
</svg>
