<svg width="90" height="90" viewBox="0 0 90 90" fill="none" xmlns="http://www.w3.org/2000/svg">
<path d="M0 0H90V90H0V0ZM82.627 68.535C81.9712 64.4291 79.298 60.9831 71.3662 57.761C68.6059 56.4673 65.5388 55.5676 64.627 53.4861C64.301 52.6433 64.2407 51.721 64.4541 50.8429C65.0169 48.4205 67.8851 47.6928 70.1355 48.3676C70.9487 48.641 71.6949 49.083 72.3256 49.6646C72.9563 50.2462 73.4572 50.9543 73.7955 51.7426C77.6734 49.2073 77.6734 49.2073 80.3767 47.5238C79.7618 46.4652 79.0235 45.4833 78.1773 44.5986C75.8149 41.9553 72.6688 40.6047 67.5502 40.7207L64.907 41.0546C62.4266 41.6058 60.1829 42.9246 58.4948 44.8235C54.2199 49.6652 55.4536 58.1019 60.6282 61.5899C65.7467 65.4148 73.2317 66.2546 74.1884 69.8586C75.0881 74.2464 70.9263 75.657 66.8154 75.1461C63.7743 74.4713 62.0908 72.9467 60.2343 70.1365L53.3742 74.0794C54.1421 75.6287 55.1692 77.0353 56.4113 78.2383C62.9365 84.8234 79.249 84.4855 82.1772 74.4733C82.7791 72.4655 82.8746 70.3398 82.4551 68.286L82.628 68.537L82.627 68.535ZM48.9364 41.3665H40.5117C40.5117 48.6345 40.4778 55.8565 40.4778 63.1355C40.4778 67.7552 40.7137 71.997 39.9599 73.3016C38.7222 75.8849 35.5351 75.555 34.0875 75.1011C32.7379 74.3875 31.6486 73.2653 30.9754 71.895C30.851 71.6296 30.6909 71.3823 30.4995 71.1602L23.6554 75.3791C24.7243 77.7161 26.4491 79.6923 28.6201 81.0675C32.2912 83.081 36.5903 83.6238 40.6467 82.5861C42.0875 82.2321 43.4373 81.5777 44.6076 80.6658C45.7779 79.7539 46.7424 78.6051 47.4378 77.2945C49.3503 73.8075 48.9454 69.5317 48.9264 64.747C48.9714 57.0492 48.9264 49.3383 48.9264 41.5755L48.9414 41.3655L48.9364 41.3665Z" fill="#FF7A00"/>
</svg>
