<svg width="90" height="90" viewBox="0 0 90 90" fill="none" xmlns="http://www.w3.org/2000/svg">
<path d="M28.4739 67.4998H48.0207C58.1682 67.4998 64.2658 62.3923 64.2658 54.0223C64.2658 47.8236 59.9851 43.2448 53.5558 42.5811V42.0186C58.2358 41.2311 61.892 36.7873 61.892 31.8036C61.892 24.4911 56.5201 19.9348 47.5933 19.9348H28.4739V67.4998ZM35.8595 40.0779V26.2011H45.872C51.3451 26.2011 54.5457 28.7717 54.5457 33.1592C54.5457 37.6704 51.1483 40.0779 44.6233 40.0779H35.8595ZM35.8595 61.2392V45.9111H46.1082C53.0607 45.9111 56.7226 48.5154 56.7226 53.4936C56.7226 58.5336 53.1957 61.2392 46.5358 61.2392H35.8595V61.2392Z" fill="#FF7A00"/>
<path d="M0 22.5C0 16.5326 2.37053 10.8097 6.5901 6.5901C10.8097 2.37053 16.5326 0 22.5 0L67.5 0C73.4674 0 79.1903 2.37053 83.4099 6.5901C87.6295 10.8097 90 16.5326 90 22.5V67.5C90 73.4674 87.6295 79.1903 83.4099 83.4099C79.1903 87.6295 73.4674 90 67.5 90H22.5C16.5326 90 10.8097 87.6295 6.5901 83.4099C2.37053 79.1903 0 73.4674 0 67.5V22.5ZM22.5 5.625C18.0245 5.625 13.7322 7.4029 10.5676 10.5676C7.4029 13.7322 5.625 18.0245 5.625 22.5V67.5C5.625 71.9755 7.4029 76.2678 10.5676 79.4324C13.7322 82.5971 18.0245 84.375 22.5 84.375H67.5C71.9755 84.375 76.2678 82.5971 79.4324 79.4324C82.5971 76.2678 84.375 71.9755 84.375 67.5V22.5C84.375 18.0245 82.5971 13.7322 79.4324 10.5676C76.2678 7.4029 71.9755 5.625 67.5 5.625H22.5Z" fill="#FF7A00"/>
</svg>
