<svg width="94" height="90" viewBox="0 0 94 90" fill="none" xmlns="http://www.w3.org/2000/svg">
<path d="M5.93804 21.1326C-2.33753 33.0224 -1.31307 48.4868 5.01427 61.1124C5.15854 61.4238 5.31839 61.7123 5.47408 62.005C5.56391 62.2038 5.66404 62.3978 5.77405 62.5863C5.82912 62.6976 5.89046 62.8057 5.95776 62.9101C6.06156 63.1177 6.16535 63.3076 6.26915 63.5028L6.88154 64.5407C6.99467 64.7317 7.10366 64.9185 7.23237 65.1095C7.44722 65.4759 7.70048 65.8361 7.9226 66.2045C8.0264 66.3561 8.11774 66.5087 8.23399 66.6602C8.6118 67.2539 9.01452 67.831 9.44216 68.3915C9.74628 68.8067 10.0504 69.2136 10.3763 69.6194C10.4801 69.7678 10.5984 69.9152 10.7074 70.0636L11.5689 71.112C11.6727 71.2324 11.7765 71.3735 11.8928 71.4981C12.2747 71.9579 12.6806 72.4063 13.0854 72.8588C13.0854 72.8671 13.0968 72.8744 13.1051 72.8858C13.5987 73.5099 14.1521 74.0842 14.7575 74.6005C15.0689 74.9202 15.3803 75.2399 15.7124 75.5513L16.1058 75.9291C16.5386 76.3349 16.9714 76.7397 17.4271 77.13C17.4354 77.13 17.4385 77.1383 17.4468 77.1414L17.6689 77.3366C18.0665 77.6832 18.4682 78.0309 18.8771 78.3496L19.3639 78.7585C19.695 79.0232 20.0386 79.2775 20.377 79.538L20.9073 79.9439C21.2696 80.2169 21.6557 80.4857 22.0263 80.7504C22.1622 80.8479 22.2992 80.9455 22.4414 81.0348L22.5546 81.124L23.6496 81.8454L24.1177 82.1568C24.6907 82.5232 25.2595 82.8699 25.8251 83.2134C25.9891 83.2954 26.1521 83.3847 26.3047 83.4781C26.7261 83.7199 27.162 83.9649 27.5876 84.1912C27.8211 84.324 28.063 84.4372 28.3048 84.5576C28.5975 84.7216 28.9016 84.8814 29.213 85.0444C29.2883 85.0673 29.3613 85.0971 29.431 85.1336C29.5597 85.1918 29.6801 85.254 29.8057 85.3173C30.2738 85.5509 30.7606 85.773 31.2671 85.9951C31.3679 86.0343 31.4667 86.0787 31.5629 86.128C32.1245 86.374 32.686 86.6075 33.2662 86.8379C33.3991 86.8774 33.5392 86.9417 33.6752 86.9936C34.2014 87.1929 34.7432 87.3953 35.2778 87.5863L35.4729 87.6569C36.0697 87.8645 36.6582 88.0544 37.2623 88.2413C37.4024 88.2807 37.5467 88.3305 37.6951 88.37C38.3003 88.5778 38.9155 88.7548 39.5385 88.9004C79.5338 96.1899 91.1589 64.8521 91.1589 64.8521C81.3959 77.567 64.0684 80.9196 47.6563 77.1892C47.0481 77.049 46.4399 76.8539 45.8285 76.6702C45.0867 76.4515 44.3501 76.2163 43.6187 75.9644L43.3769 75.871C42.8465 75.6914 42.3389 75.4932 41.8199 75.2939C41.6816 75.2357 41.5387 75.1825 41.3913 75.134C40.8183 74.9036 40.2609 74.6659 39.7077 74.421C39.5873 74.3815 39.4856 74.3275 39.3652 74.2808C38.894 74.0643 38.4248 73.8435 37.9577 73.6186C37.8135 73.5563 37.6848 73.4899 37.5426 73.411C37.1762 73.2398 36.8098 73.0446 36.4506 72.8578C36.2043 72.7395 35.9621 72.6146 35.7241 72.4831C35.284 72.2496 34.8429 71.9963 34.4028 71.7565C34.2699 71.6631 34.1184 71.5853 33.9658 71.4991C33.3908 71.1587 32.8216 70.8092 32.2584 70.4508C32.1013 70.3532 31.948 70.2494 31.7985 70.1394C31.3834 69.8848 30.9779 69.617 30.5821 69.336C30.4461 69.2468 30.3205 69.1492 30.1804 69.0516C29.7929 68.7832 29.4123 68.5064 29.0386 68.2213C28.8746 68.0884 28.6992 67.9639 28.5197 67.831C28.1761 67.5622 27.8294 67.3048 27.4817 67.0204L27.0219 66.654C26.5804 66.2976 26.1466 65.9326 25.7203 65.5589C25.6759 65.5155 25.6277 65.4762 25.576 65.4417L24.2267 64.2096L23.8364 63.8432C23.5168 63.5194 23.1898 63.208 22.8618 62.8883L22.484 62.498C22.0688 62.0884 21.6671 61.6687 21.2789 61.239L21.2208 61.1767C20.8056 60.7242 20.406 60.2644 20.0002 59.7963C19.8964 59.6759 19.7926 59.5471 19.6888 59.4184L18.8076 58.339C18.3578 57.7626 17.916 57.1803 17.4821 56.5921C8.3793 44.1647 5.08589 27.0106 12.3713 12.9432L5.93804 21.1326ZM31.6169 11.1029C25.6176 19.7179 25.957 31.2298 30.6267 40.3357C31.3987 41.8684 32.2808 43.3431 33.2662 44.7481C34.1387 46.1467 35.1754 47.436 36.3541 48.5885C36.7693 49.0639 37.2239 49.5226 37.6951 49.9876L38.046 50.3385C38.4902 50.7675 38.9448 51.1899 39.4098 51.6058L39.468 51.6567C39.9938 52.1154 40.5319 52.5597 41.082 52.9894C41.2148 53.0786 41.328 53.1845 41.4567 53.2738C42.0026 53.6952 42.5517 54.1041 43.1174 54.5017L43.1755 54.537C43.4173 54.7124 43.6748 54.8722 43.9477 55.0435C44.0567 55.1141 44.1813 55.2075 44.2986 55.277C44.7137 55.5417 45.1175 55.796 45.5348 56.0451C45.6012 56.0721 45.6593 56.1074 45.7216 56.1344C46.0724 56.3492 46.4544 56.5558 46.8208 56.7468C46.9495 56.8246 47.074 56.8827 47.2069 56.9543C47.4685 57.0831 47.7259 57.219 47.975 57.3519L48.0995 57.4069C48.6258 57.6643 49.1634 57.9061 49.6897 58.148C49.8225 58.1988 49.9357 58.2414 50.0488 58.2964C50.4816 58.4832 50.9217 58.6628 51.3545 58.831C51.5497 58.8974 51.7324 58.9752 51.9161 59.0385C52.3136 59.187 52.7309 59.3229 53.1243 59.46L53.6702 59.6354C54.2403 59.8428 54.8239 60.0106 55.4171 60.1377C86.2909 65.2559 93.4403 41.4764 93.4403 41.4764C87.005 50.7391 74.5496 55.1514 61.2763 51.7054C60.6895 51.5532 60.1072 51.3844 59.5294 51.1989C59.3426 51.1481 59.1786 51.0899 58.999 51.0349C58.5932 50.8948 58.177 50.7578 57.7826 50.6104L57.221 50.4028C56.7841 50.2274 56.3398 50.0634 55.9153 49.8766C55.7824 49.8184 55.662 49.779 55.5603 49.7209C55.0144 49.4749 54.4653 49.2341 53.9349 48.9725L53.1315 48.5573L52.6676 48.3238C52.3084 48.137 51.9773 47.9418 51.6296 47.7394C51.5465 47.6998 51.4658 47.6554 51.3878 47.6066C50.9726 47.3492 50.546 47.1001 50.1516 46.8343C50.0187 46.7606 49.8983 46.6703 49.7738 46.5925L48.9631 46.0621C48.4016 45.6718 47.8525 45.2515 47.3024 44.8456C47.1778 44.7325 47.0564 44.638 46.936 44.5342C41.015 39.962 36.6161 33.7051 34.3176 26.586C33.1088 22.9079 32.6783 19.0186 33.0536 15.1651C33.4288 11.3117 34.6016 7.57844 36.4973 4.20266L31.6169 11.1029ZM53.2083 3.62971C51.5168 6.16543 50.4971 9.08924 50.2447 12.1269C49.9923 15.1646 50.5157 18.2166 51.7656 20.9967C53.1026 24.0171 55.0364 26.7361 57.4508 28.9903C59.8651 31.2445 62.7103 32.9874 65.8153 34.1143C66.0685 34.2118 66.3145 34.2938 66.575 34.3873L66.9176 34.4911C67.2767 34.6042 67.6389 34.737 68.0095 34.818C85.0682 38.1083 89.6839 26.0588 90.9274 24.289C86.8649 30.1223 80.0549 31.5215 71.7056 29.4902C71.024 29.3202 70.3525 29.1123 69.6941 28.8674C68.8756 28.5798 68.0729 28.2493 67.2891 27.8772C65.8057 27.1581 64.3958 26.2963 63.0792 25.3042C55.5894 19.639 50.9549 8.81426 55.8354 0" fill="#FF7A00"/>
</svg>
