<svg width="120" height="90" viewBox="0 0 120 90" fill="none" xmlns="http://www.w3.org/2000/svg">
<path d="M56.5915 68.0428C56.5355 68.1561 56.4795 68.2454 56.5915 68.0428V68.0428ZM103.298 51.731C99.527 51.7301 95.8061 52.5966 92.4233 54.2635C91.3638 52.4979 90.5453 50.5986 89.9894 48.6161C89.6702 47.0557 89.6005 45.4546 89.7828 43.8723C90.1445 42.1428 90.6205 40.4392 91.2077 38.7727C91.189 38.5661 90.9411 37.5358 88.5259 37.5172C86.1108 37.4985 84.0261 37.9863 83.7849 38.6235C83.3575 39.7885 83.0249 40.9862 82.7905 42.2049C82.3587 44.3988 77.9549 52.2362 75.4597 56.3228C74.6953 55.0413 74.1325 53.65 73.7909 52.1975C73.4717 50.6371 73.402 49.036 73.5843 47.4538C73.9472 45.7233 74.4245 44.0188 75.0132 42.3515C74.9945 42.1449 74.7466 41.1146 72.3341 41.0959C69.9216 41.0773 67.8343 41.5651 67.5904 42.2022C67.3465 42.8394 67.0839 44.3348 66.5961 45.7837C66.1082 47.2325 60.2462 60.2814 58.7067 63.6776C57.919 65.4023 57.2406 66.7899 56.7567 67.7269C56.6821 67.8775 56.6235 67.9708 56.5875 68.0454C56.6435 67.9521 56.6808 67.8575 56.6808 67.8948C56.2689 68.6945 56.025 69.1504 56.025 69.1504V69.169C55.7064 69.7688 55.3506 70.3127 55.1813 70.3127C54.8967 69.0825 54.9159 67.8016 55.2373 66.5806C56.1183 62.0488 58.2003 54.9939 58.1803 54.75C58.1616 54.6167 58.5801 53.3998 56.8114 52.744C56.4058 52.5532 55.9517 52.4904 55.5096 52.564C55.0675 52.6376 54.6582 52.844 54.3362 53.1558C54.1856 53.1558 54.0697 53.5304 54.0697 53.5304C54.0697 53.5304 55.9637 45.5811 50.4336 45.5811C46.9841 45.5811 42.1844 49.3678 39.8252 52.8C38.3444 53.5997 35.1375 55.3498 31.7626 57.2065C30.4684 57.9195 29.1382 58.65 27.8813 59.3391C27.788 59.2458 27.712 59.1511 27.6147 59.0578C20.9156 51.9003 8.53051 46.838 9.05167 37.2199C9.23961 33.7145 10.4579 24.5083 32.8756 13.3334C51.2493 4.18453 65.939 6.69567 68.4634 12.2831C72.1009 20.2511 60.6101 35.0753 41.5286 37.2199C34.2564 38.0197 30.4324 35.214 29.4767 34.1636C28.4824 33.0574 28.3331 33.0014 27.9586 33.208C27.3401 33.5452 27.7333 34.5209 27.9586 35.102C28.689 36.4193 29.6755 37.5773 30.8601 38.5078C32.0447 39.4383 33.4033 40.1225 34.8562 40.5201C38.3617 41.6638 46.8894 42.3009 57.1993 38.3076C68.782 33.8451 77.7989 21.4147 75.1558 11.0089C72.4687 0.433807 54.9347 -3.03434 38.355 2.85298C28.4757 6.36379 17.7927 11.8712 10.1073 19.0515C0.978422 27.6019 -0.482414 35.0447 0.117382 38.157C2.25399 49.1999 17.4741 56.4001 23.5654 61.7249C23.2655 61.8942 22.9843 62.0435 22.7217 62.1941C19.6681 63.7122 8.06001 69.7915 5.15966 76.2C1.87812 83.4748 5.70348 88.6864 8.21329 89.3955C16.048 91.5707 24.0746 87.6521 28.3811 81.2209C32.6876 74.7898 32.1678 66.39 30.1805 62.5606C30.1618 62.5047 30.1245 62.4673 30.1058 62.41C30.8936 61.9408 31.7053 61.477 32.505 61.0038C34.0591 60.0855 35.5786 59.2418 36.9035 58.51C36.007 61.0853 35.4767 63.7738 35.3281 66.4966C34.9908 70.6219 36.6969 75.9601 38.9095 78.0647C39.3049 78.4034 39.7635 78.6602 40.2588 78.8204C40.7542 78.9805 41.2764 79.0408 41.7952 78.9977C44.3823 78.9977 45.5446 76.8651 46.8375 74.31C48.4369 71.1977 49.8378 67.5789 49.8378 67.5789C49.8378 67.5789 48.0757 77.3663 52.8941 77.3663C54.6548 77.3663 56.4169 75.1004 57.2059 73.9354V73.9541C57.2059 73.9541 57.2433 73.8794 57.3392 73.7288C57.5272 73.4476 57.6205 73.2783 57.6205 73.2783V73.2223C58.3335 72.0041 59.8863 69.2104 62.2309 64.5973C65.2685 58.6353 68.1729 51.1912 68.1729 51.1912C68.4535 52.8273 68.8417 54.4432 69.3351 56.0282C70.044 57.958 70.8834 59.8372 71.8476 61.6529C71.1345 62.6273 70.704 63.1898 70.704 63.1898C70.7054 63.2041 70.7121 63.2173 70.7227 63.2271C70.1602 63.9775 69.5231 64.7839 68.866 65.5703C66.8329 67.7895 64.9536 70.1448 63.2412 72.6199C62.9858 73.0345 62.8979 73.5309 62.9955 74.008C63.0931 74.4852 63.3687 74.9072 63.7664 75.1883C64.6667 75.6698 65.7026 75.8351 66.708 75.6575C68.2247 75.5798 69.7161 75.2369 71.1145 74.6445C72.4643 74.1672 73.7411 73.5042 74.9079 72.6745C76.1044 71.8477 77.0677 70.7266 77.7048 69.4192C78.3419 68.1118 78.6314 66.6622 78.5453 65.2104C78.404 63.3811 77.9397 61.5914 77.1738 59.9242C77.3804 59.6243 77.6056 59.3057 77.8109 58.9912C80.2514 55.3514 82.4492 51.5547 84.39 47.6257C84.6706 49.2619 85.0589 50.8777 85.5523 52.4627C86.1339 54.123 86.847 55.7343 87.6849 57.2811C84.8777 59.4402 82.6742 62.2864 81.2871 65.5449C79.8995 69.5436 80.9872 71.339 83.0305 71.7508C84.1381 71.8188 85.2441 71.5926 86.236 71.0951C87.6875 70.6122 89.056 69.9086 90.2933 69.0091C92.6352 67.2897 94.9011 64.8772 94.7531 61.589C94.6554 60.0811 94.3132 58.5992 93.7402 57.2011C97.4376 55.7483 101.45 55.283 105.382 55.8509C115.821 57.0692 117.865 63.5936 117.471 66.3127C117.285 67.2859 116.892 68.2079 116.32 69.0165C115.747 69.8252 115.008 70.5017 114.152 71.0004C113.42 71.4509 113.196 71.6189 113.252 71.9561C113.345 72.4439 113.684 72.4253 114.302 72.312C115.871 71.8173 117.253 70.8594 118.267 69.5642C119.281 68.269 119.879 66.6973 119.982 65.0558C120.282 58.6806 114.153 51.6683 103.296 51.727L103.298 51.731ZM22.8336 78.8617C19.3855 82.6298 14.5485 84.06 12.4692 82.8604C10.2379 81.5635 11.119 76.0174 15.3735 72.0014C17.8926 69.7325 20.6142 67.6989 23.5041 65.9262C24.0106 65.6263 24.741 65.1757 25.6367 64.6319C25.7873 64.5386 25.8619 64.4986 25.8619 64.4986C26.0312 64.3867 26.2178 64.292 26.4058 64.1801C27.1651 66.7247 27.2335 69.4256 26.6041 72.0055C25.9747 74.5854 24.6702 76.9513 22.8243 78.8604L22.8336 78.8617ZM48.0251 61.7249C46.8255 64.6679 44.293 72.168 42.7589 71.7748C41.446 71.4376 40.6396 65.7182 42.4923 60.0948C43.4335 57.3776 44.8215 54.8365 46.5989 52.576C48.4902 50.4568 50.5722 49.777 51.0587 50.626C51.7158 51.731 48.7755 59.8869 48.0251 61.7249ZM68.8366 71.6615C68.3301 71.9281 67.8623 72.0934 67.637 71.9614C67.4678 71.8681 67.8436 71.5109 67.8436 71.5109C67.8436 71.5109 70.4494 68.7119 71.4811 67.443C72.0809 66.6926 72.7753 65.8115 73.523 64.8372C73.523 64.9305 73.5417 65.0251 73.5417 65.1371C73.5177 68.4933 70.2948 70.7618 68.8313 71.6682L68.8366 71.6615ZM84.8818 68.0054C84.5073 67.7389 84.5633 66.8618 85.8149 64.1241C86.6819 62.3693 87.8936 60.8072 89.3776 59.531C89.5984 60.1839 89.7184 60.8666 89.7335 61.5556C89.7506 63.016 89.2836 64.4408 88.4053 65.6077C87.5271 66.7745 86.2872 67.6177 84.8792 68.0054H84.8818Z" fill="#FF7A00"/>
</svg>
