<svg width="90" height="90" viewBox="0 0 90 90" fill="none" xmlns="http://www.w3.org/2000/svg">
<path d="M88.3019 40.992L49.016 1.69713C47.9286 0.61044 46.4543 0 44.917 0C43.3798 0 41.9054 0.61044 40.8181 1.69713L32.6492 9.85903L42.9995 20.2094C44.2198 19.7964 45.5314 19.734 46.7854 20.0292C48.0394 20.3244 49.1855 20.9654 50.0934 21.8793C51.0013 22.7933 51.6347 23.9436 51.9216 25.1995C52.2084 26.4554 52.1373 27.7666 51.7163 28.9841L61.6927 38.9606C68.5689 36.5902 73.9835 45.1879 68.8189 50.3496C63.4972 55.6713 54.7135 49.7728 57.5688 42.8515L48.2572 33.5539V58.0276C53.3399 60.547 52.729 66.4355 50.0817 69.0768C49.3609 69.802 48.488 70.3579 47.526 70.7043C46.564 71.0507 45.537 71.1789 44.5193 71.0797C43.5017 70.9804 42.5189 70.6562 41.6419 70.1304C40.765 69.6047 40.0159 68.8906 39.4488 68.0398C38.8818 67.1889 38.5109 66.2227 38.3632 65.211C38.2154 64.1993 38.2944 63.1673 38.5944 62.1899C38.8944 61.2124 39.408 60.3139 40.0979 59.5593C40.7878 58.8047 41.6369 58.2129 42.5836 57.8267V33.1171C41.7417 32.7724 40.9764 32.2644 40.3317 31.6225C39.6871 30.9806 39.176 30.2173 38.8278 29.3769C38.4797 28.5364 38.3014 27.6353 38.3032 26.7255C38.3051 25.8158 38.487 24.9154 38.8386 24.0764L28.6392 13.861L1.69713 40.8091C0.61044 41.8964 0 43.3708 0 44.908C0 46.4453 0.61044 47.9196 1.69713 49.007L40.993 88.3029C42.0804 89.3896 43.5547 90 45.092 90C46.6292 90 48.1036 89.3896 49.1909 88.3029L88.3019 49.1909C89.3886 48.1036 89.999 46.6292 89.999 45.092C89.999 43.5547 89.3886 42.0804 88.3019 40.993V40.992Z" fill="#FF7A00"/>
</svg>
