<svg width="93" height="90" viewBox="0 0 93 90" fill="none" xmlns="http://www.w3.org/2000/svg">
<path d="M30.8759 72.4677C30.8759 72.8399 30.4483 73.1372 29.9079 73.1372C29.2927 73.1926 28.8662 72.8953 28.8662 72.4677C28.8662 72.0955 29.2937 71.7981 29.8341 71.7981C30.3919 71.7428 30.8759 72.0401 30.8759 72.4677ZM25.0877 71.63C24.9575 72.0022 25.3297 72.4297 25.8875 72.5415C26.0906 72.641 26.3243 72.6578 26.5395 72.5884C26.7546 72.519 26.9345 72.3687 27.041 72.1693C27.1528 71.7971 26.7991 71.3695 26.2413 71.2014C26.0292 71.1256 25.7972 71.1271 25.5861 71.2057C25.3751 71.2843 25.1986 71.4349 25.0877 71.631V71.63ZM33.3131 71.3131C32.7738 71.4434 32.4016 71.7971 32.4569 72.2247C32.5123 72.5969 32.9963 72.8399 33.5551 72.7086C34.0944 72.5784 34.4666 72.2247 34.4113 71.8525C34.3559 71.5049 33.8535 71.2588 33.3141 71.3142L33.3131 71.3131ZM45.5599 0C19.7467 0 0.00151434 19.5965 0.00151434 45.4087C-0.0773609 55.2005 2.92678 64.7689 8.58835 72.7584C14.2499 80.7479 22.2819 86.7535 31.5464 89.9243C33.9283 90.3519 34.766 88.8825 34.766 87.6685C34.766 86.515 34.7107 80.1496 34.7107 76.242C34.7107 76.242 21.6836 79.034 18.9479 70.6959C18.9479 70.6959 16.8265 65.28 13.774 63.8845C13.774 63.8845 9.51267 60.9622 14.0714 61.0135C15.5556 61.2134 16.9744 61.7499 18.2194 62.5822C19.4645 63.4144 20.5028 64.5202 21.255 65.8152C25.3308 72.9988 32.1606 70.9327 34.8224 69.7044C35.0616 67.3336 36.1119 65.1181 37.7959 63.4323C27.3927 62.2788 16.8962 60.7664 16.8962 42.8679C16.8962 37.7503 18.3102 35.1777 21.2878 31.9069C19.8765 27.7805 20.049 23.2768 21.7718 19.2704C25.6609 18.0605 34.6133 24.2947 34.6133 24.2947C42.2631 22.1849 50.3414 22.1849 57.9913 24.2947C57.9913 24.2947 66.9426 18.04 70.8328 19.2704C72.5563 23.2766 72.7288 27.7806 71.3167 31.9069C74.2902 35.2013 76.1184 37.7688 76.1184 42.8679C76.1184 60.8269 65.1574 62.2603 54.7542 63.4323C56.4666 64.9027 57.9185 67.6937 57.9185 72.0678C57.9185 78.3399 57.8631 86.0997 57.8631 87.6265C57.8631 88.8364 58.7193 90.3067 61.0827 89.8822C79.6928 83.7035 92.3108 66.0428 92.3108 45.4036C92.3087 19.5965 71.3721 0 45.5599 0ZM18.0908 64.187C17.8488 64.3736 17.9041 64.8022 18.221 65.1549C18.5183 65.4522 18.9469 65.5825 19.1889 65.3415C19.4309 65.1549 19.3755 64.7263 19.0587 64.3736C18.7654 64.0752 18.3327 63.945 18.0908 64.187V64.187ZM16.0811 62.6797C15.9508 62.9217 16.1364 63.219 16.5086 63.4056C16.5687 63.4522 16.6377 63.4859 16.7114 63.5047C16.7851 63.5234 16.8618 63.5268 16.9369 63.5145C17.0119 63.5023 17.0836 63.4748 17.1475 63.4337C17.2114 63.3925 17.2662 63.3387 17.3084 63.2754C17.4386 63.0334 17.253 62.7361 16.8808 62.5495C16.5097 62.4367 16.2113 62.4931 16.0811 62.6787V62.6797ZM22.1112 69.3045C21.8138 69.5465 21.9256 70.1043 22.3531 70.458C22.7807 70.8856 23.3211 70.942 23.5631 70.6436C23.805 70.4016 23.6933 69.8438 23.3211 69.4901C22.9109 69.0625 22.3542 69.0061 22.1101 69.3045H22.1112ZM19.9897 66.5688C19.6924 66.7555 19.6924 67.2384 19.9897 67.667C20.2871 68.0956 20.7895 68.2822 21.0315 68.0946C21.1767 67.9376 21.2574 67.7317 21.2574 67.5178C21.2574 67.304 21.1767 67.098 21.0315 66.941C20.771 66.5125 20.2871 66.3269 19.9887 66.5688H19.9897Z" fill="#FF7A00"/>
</svg>
