<svg width="90" height="90" viewBox="0 0 90 90" fill="none" xmlns="http://www.w3.org/2000/svg">
<path d="M9.7442 29.2855L28.1619 79.729C19.146 75.3548 12.184 67.6467 8.74715 58.2336C5.31028 48.8205 5.66782 38.4399 9.7442 29.2855ZM71.0565 43.0576C71.0065 39.2815 69.9072 35.5937 67.8814 32.4066C65.919 29.2286 64.0885 26.5293 64.0885 23.3523C64.0406 21.5844 64.6956 19.8696 65.9099 18.5839C67.1243 17.2981 68.7989 16.5463 70.5666 16.4932C70.7296 16.4932 70.8935 16.5112 71.0745 16.5292C66.953 12.7511 62.06 9.91356 56.7339 8.21277C51.4078 6.51199 45.7758 5.98862 40.2275 6.67886C34.6792 7.36911 29.3471 9.25649 24.6001 12.2104C19.853 15.1644 15.8044 19.1144 12.7343 23.7871C13.6421 23.8231 14.4948 23.8411 15.2206 23.8411C19.2485 23.8411 25.5086 23.3513 25.5086 23.3513C25.9297 23.3176 26.3469 23.4525 26.6684 23.7265C26.9899 24.0004 27.1895 24.3908 27.2232 24.8118C27.2568 25.2329 27.1219 25.65 26.8479 25.9716C26.574 26.2931 26.1836 26.4927 25.7626 26.5263C25.7626 26.5263 23.6762 26.7623 21.3528 26.8892L35.4198 68.6961L43.8753 43.3665L37.8691 26.8912C35.7827 26.7643 33.8222 26.5283 33.8222 26.5283C33.4097 26.4861 33.03 26.2846 32.7637 25.9667C32.4975 25.6488 32.3657 25.2396 32.3964 24.8261C32.4271 24.4126 32.618 24.0273 32.9283 23.7523C33.2386 23.4772 33.644 23.3341 34.0582 23.3533C34.0582 23.3533 40.4273 23.8431 44.2192 23.8431C48.2471 23.8431 54.5073 23.3533 54.5073 23.3533C54.9284 23.3194 55.3458 23.4543 55.6675 23.7282C55.9892 24.0022 56.189 24.3927 56.2228 24.8138C56.2566 25.235 56.1217 25.6524 55.8478 25.9741C55.5739 26.2958 55.1834 26.4955 54.7622 26.5293C54.7622 26.5293 52.6758 26.7653 50.3525 26.8922L64.3064 68.3902L68.1533 55.521C69.7858 50.1885 71.0565 46.3596 71.0565 43.0576ZM45.6718 48.374L34.0952 82.0333C41.8681 84.3305 50.168 84.1136 57.8103 81.4135C57.7019 81.2479 57.6108 81.0717 57.5384 80.8876L45.6718 48.374ZM78.8762 26.4733C79.0486 27.7909 79.1334 29.1184 79.1301 30.4472C79.0668 35.204 78.0681 39.9019 76.191 44.2732L64.3944 78.3633C73.0891 73.3008 79.4663 65.0466 82.1703 55.3556C84.8743 45.6646 83.6918 35.3011 78.8742 26.4683L78.8762 26.4733ZM90 44.999C90.0002 53.8992 87.3612 62.5996 82.4166 69.9999C77.4721 77.4003 70.4441 83.1682 62.2215 86.5743C53.9988 89.9804 44.9508 90.8717 36.2216 89.1354C27.4924 87.3992 19.474 83.1135 13.1806 76.8201C6.88711 70.5268 2.60117 62.5086 0.864756 53.7794C-0.87166 45.0503 0.0194315 36.0022 3.42535 27.7795C6.83126 19.5567 12.599 12.5286 19.9993 7.58394C27.3995 2.63923 36.0998 2.1963e-09 45 0C56.9305 0.01323 68.3686 4.7584 76.8048 13.1945C85.2411 21.6305 89.9865 33.0685 90 44.999ZM87.9316 44.999C87.9316 36.5082 85.4138 28.208 80.6966 21.1481C75.9793 14.0883 69.2745 8.58574 61.4301 5.33639C53.5856 2.08705 44.9537 1.23682 36.626 2.89323C28.2983 4.54963 20.6488 8.63828 14.6449 14.6421C8.64086 20.646 4.55204 28.2954 2.89544 36.623C1.23884 44.9507 2.08887 53.5826 5.33803 61.4271C8.58719 69.2717 14.0896 75.9766 21.1493 80.694C28.2091 85.4114 36.5092 87.9294 45 87.9296C56.3817 87.9158 67.2933 83.3884 75.3413 75.3403C83.3894 67.2922 87.9178 56.3807 87.9316 44.999Z" fill="#FF7A00"/>
</svg>
