<svg width="201" height="18" viewBox="0 0 201 18" fill="none" xmlns="http://www.w3.org/2000/svg">
<path d="M4.83134 13.4395C3.91709 13.4395 3.09998 13.2338 2.38001 12.8224C1.67147 12.3995 1.11149 11.8338 0.700075 11.1253C0.30009 10.4053 0.100098 9.59392 0.100098 8.69109C0.100098 7.76542 0.30009 6.94259 0.700075 6.22262C1.10006 5.50264 1.64861 4.94267 2.34573 4.54268C3.04284 4.13127 3.84281 3.92556 4.74563 3.92556C6.09415 3.92556 7.21411 4.43983 8.1055 5.46836C8.2655 5.65121 8.32264 5.83978 8.27693 6.03405C8.23121 6.22833 8.1055 6.39975 7.8998 6.54832C7.7398 6.6626 7.56267 6.7026 7.36839 6.66831C7.17411 6.6226 6.99697 6.51975 6.83698 6.35976C6.277 5.76549 5.57989 5.46836 4.74563 5.46836C3.86567 5.46836 3.15141 5.76549 2.60286 6.35976C2.05431 6.94259 1.78003 7.7197 1.78003 8.69109C1.78003 9.30821 1.90574 9.85676 2.15716 10.3367C2.42001 10.8167 2.77999 11.1996 3.23712 11.4853C3.69425 11.7595 4.22565 11.8967 4.83134 11.8967C5.60846 11.8967 6.237 11.6967 6.71699 11.2967C6.89984 11.1481 7.0884 11.0681 7.28268 11.0567C7.47696 11.0339 7.64838 11.0853 7.79694 11.211C7.99122 11.371 8.09979 11.5538 8.12265 11.7595C8.1455 11.9538 8.07693 12.131 7.91694 12.291C7.09411 13.0566 6.06558 13.4395 4.83134 13.4395Z" fill="white" fill-opacity="0.9"/>
<path d="M15.1267 13.4395C14.201 13.4395 13.3839 13.2395 12.6754 12.8395C11.9668 12.4281 11.4068 11.8681 10.9954 11.1596C10.5955 10.4396 10.3955 9.61677 10.3955 8.69109C10.3955 7.75399 10.5955 6.93116 10.9954 6.22262C11.4068 5.50264 11.9668 4.94267 12.6754 4.54268C13.3839 4.13127 14.201 3.92556 15.1267 3.92556C16.041 3.92556 16.8524 4.13127 17.5609 4.54268C18.2694 4.94267 18.8237 5.50264 19.2237 6.22262C19.6351 6.93116 19.8408 7.75399 19.8408 8.69109C19.8408 9.61677 19.6408 10.4396 19.2408 11.1596C18.8408 11.8681 18.2866 12.4281 17.578 12.8395C16.8695 13.2395 16.0524 13.4395 15.1267 13.4395ZM15.1267 11.8967C15.721 11.8967 16.2467 11.7595 16.7038 11.4853C17.1609 11.211 17.5152 10.8339 17.7666 10.3539C18.0295 9.87391 18.1609 9.31964 18.1609 8.69109C18.1609 8.06255 18.0295 7.50828 17.7666 7.0283C17.5152 6.53689 17.1609 6.15405 16.7038 5.87977C16.2467 5.6055 15.721 5.46836 15.1267 5.46836C14.5324 5.46836 14.0067 5.6055 13.5496 5.87977C13.0925 6.15405 12.7325 6.53689 12.4697 7.0283C12.2068 7.50828 12.0754 8.06255 12.0754 8.69109C12.0754 9.31964 12.2068 9.87391 12.4697 10.3539C12.7325 10.8339 13.0925 11.211 13.5496 11.4853C14.0067 11.7595 14.5324 11.8967 15.1267 11.8967Z" fill="white" fill-opacity="0.9"/>
<path d="M23.3173 13.3881C23.0659 13.3881 22.8545 13.3081 22.6831 13.1481C22.5231 12.9766 22.4431 12.7652 22.4431 12.5138V4.86838C22.4431 4.60554 22.5231 4.39412 22.6831 4.23412C22.8545 4.07413 23.0659 3.99413 23.3173 3.99413C23.5802 3.99413 23.7916 4.07413 23.9516 4.23412C24.1116 4.39412 24.1916 4.60554 24.1916 4.86838V5.05695C24.5459 4.70268 24.9744 4.42269 25.4772 4.21698C25.9801 4.01127 26.5229 3.90842 27.1058 3.90842C27.8943 3.90842 28.5971 4.07984 29.2142 4.42269C29.8428 4.7541 30.3342 5.24551 30.6885 5.89692C31.0542 6.54832 31.237 7.34829 31.237 8.29682V12.5138C31.237 12.7652 31.1513 12.9766 30.9799 13.1481C30.8199 13.3081 30.6142 13.3881 30.3628 13.3881C30.1114 13.3881 29.8999 13.3081 29.7285 13.1481C29.5685 12.9766 29.4885 12.7652 29.4885 12.5138V8.29682C29.4885 7.32543 29.2257 6.61689 28.7 6.17119C28.1857 5.71407 27.54 5.4855 26.7629 5.4855C26.2829 5.4855 25.8487 5.58264 25.4601 5.77692C25.0715 5.9712 24.763 6.23405 24.5344 6.56546C24.3059 6.88545 24.1916 7.25686 24.1916 7.6797V12.5138C24.1916 12.7652 24.1116 12.9766 23.9516 13.1481C23.7916 13.3081 23.5802 13.3881 23.3173 13.3881Z" fill="white" fill-opacity="0.9"/>
<path d="M37.5392 13.3709C36.9678 13.3709 36.4535 13.2281 35.9964 12.9424C35.5393 12.6452 35.1793 12.2452 34.9164 11.7424C34.6536 11.2396 34.5222 10.6739 34.5222 10.0453V5.8112H33.7336C33.4936 5.8112 33.2994 5.74264 33.1508 5.6055C33.0022 5.46836 32.9279 5.29694 32.9279 5.09123C32.9279 4.86267 33.0022 4.67982 33.1508 4.54268C33.2994 4.40554 33.4936 4.33698 33.7336 4.33698H34.5222V1.8685C34.5222 1.61708 34.6022 1.41137 34.7622 1.25138C34.9221 1.09139 35.1279 1.01139 35.3793 1.01139C35.6307 1.01139 35.8364 1.09139 35.9964 1.25138C36.1564 1.41137 36.2364 1.61708 36.2364 1.8685V4.33698H37.6935C37.9335 4.33698 38.1277 4.40554 38.2763 4.54268C38.4249 4.67982 38.4992 4.86267 38.4992 5.09123C38.4992 5.29694 38.4249 5.46836 38.2763 5.6055C38.1277 5.74264 37.9335 5.8112 37.6935 5.8112H36.2364V10.0453C36.2364 10.5025 36.3621 10.8853 36.6135 11.1939C36.8649 11.5024 37.1735 11.6567 37.5392 11.6567H38.122C38.3277 11.6567 38.4992 11.7367 38.6363 11.8967C38.7849 12.0567 38.8591 12.2624 38.8591 12.5138C38.8591 12.7652 38.762 12.9709 38.5677 13.1309C38.3849 13.2909 38.1449 13.3709 37.8477 13.3709H37.5392Z" fill="white" fill-opacity="0.9"/>
<path d="M44.9166 13.4395C44.0824 13.4395 43.3338 13.2338 42.671 12.8224C42.0082 12.3995 41.4825 11.8338 41.0939 11.1253C40.7168 10.4053 40.5282 9.59392 40.5282 8.69109C40.5282 7.78827 40.7339 6.97687 41.1453 6.2569C41.5682 5.53693 42.1339 4.97124 42.8424 4.55982C43.5624 4.13698 44.3681 3.92556 45.2595 3.92556C46.1509 3.92556 46.9508 4.13698 47.6594 4.55982C48.3679 4.97124 48.9279 5.53693 49.3393 6.2569C49.7622 6.97687 49.9736 7.78827 49.9736 8.69109V12.5138C49.9736 12.7652 49.8879 12.9766 49.7164 13.1481C49.5565 13.3081 49.3507 13.3881 49.0993 13.3881C48.8479 13.3881 48.6365 13.3081 48.4651 13.1481C48.3051 12.9766 48.2251 12.7652 48.2251 12.5138V11.8795C47.8251 12.3595 47.3394 12.7424 46.768 13.0281C46.208 13.3023 45.5909 13.4395 44.9166 13.4395ZM45.2595 11.8967C45.8423 11.8967 46.3623 11.7595 46.8194 11.4853C47.2765 11.1996 47.6365 10.8167 47.8994 10.3367C48.1622 9.84533 48.2936 9.29678 48.2936 8.69109C48.2936 8.07397 48.1622 7.52542 47.8994 7.04544C47.6365 6.55403 47.2765 6.17119 46.8194 5.89692C46.3623 5.61121 45.8423 5.46836 45.2595 5.46836C44.6881 5.46836 44.1681 5.61121 43.6995 5.89692C43.2424 6.17119 42.8767 6.55403 42.6024 7.04544C42.3396 7.52542 42.2082 8.07397 42.2082 8.69109C42.2082 9.29678 42.3396 9.84533 42.6024 10.3367C42.8767 10.8167 43.2424 11.1996 43.6995 11.4853C44.1681 11.7595 44.6881 11.8967 45.2595 11.8967Z" fill="white" fill-opacity="0.9"/>
<path d="M56.8271 13.4395C55.9129 13.4395 55.0957 13.2338 54.3758 12.8224C53.6672 12.3995 53.1072 11.8338 52.6958 11.1253C52.2959 10.4053 52.0959 9.59392 52.0959 8.69109C52.0959 7.76542 52.2959 6.94259 52.6958 6.22262C53.0958 5.50264 53.6444 4.94267 54.3415 4.54268C55.0386 4.13127 55.8386 3.92556 56.7414 3.92556C58.0899 3.92556 59.2099 4.43983 60.1013 5.46836C60.2613 5.65121 60.3184 5.83978 60.2727 6.03405C60.227 6.22833 60.1013 6.39975 59.8956 6.54832C59.7356 6.6626 59.5584 6.7026 59.3642 6.66831C59.1699 6.6226 58.9927 6.51975 58.8327 6.35976C58.2728 5.76549 57.5757 5.46836 56.7414 5.46836C55.8614 5.46836 55.1472 5.76549 54.5986 6.35976C54.0501 6.94259 53.7758 7.7197 53.7758 8.69109C53.7758 9.30821 53.9015 9.85676 54.1529 10.3367C54.4158 10.8167 54.7758 11.1996 55.2329 11.4853C55.69 11.7595 56.2214 11.8967 56.8271 11.8967C57.6042 11.8967 58.2328 11.6967 58.7127 11.2967C58.8956 11.1481 59.0842 11.0681 59.2784 11.0567C59.4727 11.0339 59.6441 11.0853 59.7927 11.211C59.987 11.371 60.0955 11.5538 60.1184 11.7595C60.1413 11.9538 60.0727 12.131 59.9127 12.291C59.0899 13.0566 58.0613 13.4395 56.8271 13.4395Z" fill="white" fill-opacity="0.9"/>
<path d="M66.2825 13.3709C65.7111 13.3709 65.1968 13.2281 64.7397 12.9424C64.2826 12.6452 63.9226 12.2452 63.6597 11.7424C63.3969 11.2396 63.2655 10.6739 63.2655 10.0453V5.8112H62.4769C62.2369 5.8112 62.0427 5.74264 61.8941 5.6055C61.7455 5.46836 61.6712 5.29694 61.6712 5.09123C61.6712 4.86267 61.7455 4.67982 61.8941 4.54268C62.0427 4.40554 62.2369 4.33698 62.4769 4.33698H63.2655V1.8685C63.2655 1.61708 63.3455 1.41137 63.5055 1.25138C63.6655 1.09139 63.8712 1.01139 64.1226 1.01139C64.374 1.01139 64.5797 1.09139 64.7397 1.25138C64.8997 1.41137 64.9797 1.61708 64.9797 1.8685V4.33698H66.4368C66.6768 4.33698 66.871 4.40554 67.0196 4.54268C67.1682 4.67982 67.2425 4.86267 67.2425 5.09123C67.2425 5.29694 67.1682 5.46836 67.0196 5.6055C66.871 5.74264 66.6768 5.8112 66.4368 5.8112H64.9797V10.0453C64.9797 10.5025 65.1054 10.8853 65.3568 11.1939C65.6082 11.5024 65.9168 11.6567 66.2825 11.6567H66.8653C67.071 11.6567 67.2425 11.7367 67.3796 11.8967C67.5282 12.0567 67.6024 12.2624 67.6024 12.5138C67.6024 12.7652 67.5053 12.9709 67.311 13.1309C67.1282 13.2909 66.8882 13.3709 66.5911 13.3709H66.2825Z" fill="white" fill-opacity="0.9"/>
<path d="M74.0028 13.4395C73.0771 13.4395 72.26 13.2395 71.5514 12.8395C70.8429 12.4281 70.2829 11.8681 69.8715 11.1596C69.4715 10.4396 69.2715 9.61677 69.2715 8.69109C69.2715 7.75399 69.4715 6.93116 69.8715 6.22262C70.2829 5.50264 70.8429 4.94267 71.5514 4.54268C72.26 4.13127 73.0771 3.92556 74.0028 3.92556C74.917 3.92556 75.7284 4.13127 76.437 4.54268C77.1455 4.94267 77.6998 5.50264 78.0998 6.22262C78.5112 6.93116 78.7169 7.75399 78.7169 8.69109C78.7169 9.61677 78.5169 10.4396 78.1169 11.1596C77.7169 11.8681 77.1627 12.4281 76.4541 12.8395C75.7456 13.2395 74.9285 13.4395 74.0028 13.4395ZM74.0028 11.8967C74.597 11.8967 75.1227 11.7595 75.5799 11.4853C76.037 11.211 76.3913 10.8339 76.6427 10.3539C76.9055 9.87391 77.037 9.31964 77.037 8.69109C77.037 8.06255 76.9055 7.50828 76.6427 7.0283C76.3913 6.53689 76.037 6.15405 75.5799 5.87977C75.1227 5.6055 74.597 5.46836 74.0028 5.46836C73.4085 5.46836 72.8828 5.6055 72.4257 5.87977C71.9686 6.15405 71.6086 6.53689 71.3457 7.0283C71.0829 7.50828 70.9515 8.06255 70.9515 8.69109C70.9515 9.31964 71.0829 9.87391 71.3457 10.3539C71.6086 10.8339 71.9686 11.211 72.4257 11.4853C72.8828 11.7595 73.4085 11.8967 74.0028 11.8967Z" fill="white" fill-opacity="0.9"/>
<path d="M89.1531 17.3822C87.8846 17.3822 86.7189 17.1708 85.6561 16.7479C84.5933 16.3251 83.6733 15.7251 82.8962 14.948C82.1191 14.1709 81.5191 13.2509 81.0963 12.1881C80.6735 11.1253 80.462 9.95962 80.462 8.69109C80.462 7.42257 80.6735 6.2569 81.0963 5.19409C81.5191 4.13127 82.1191 3.2113 82.8962 2.43419C83.6733 1.65708 84.5933 1.0571 85.6561 0.634261C86.7189 0.21142 87.8846 0 89.1531 0C90.4217 0 91.5873 0.21142 92.6501 0.634261C93.713 1.0571 94.6329 1.65708 95.41 2.43419C96.1872 3.2113 96.7871 4.13127 97.21 5.19409C97.6328 6.2569 97.8442 7.42257 97.8442 8.69109C97.8442 9.75391 97.6957 10.6967 97.3985 11.5196C97.1014 12.331 96.69 12.9709 96.1643 13.4395C95.65 13.908 95.0501 14.1423 94.3644 14.1423C93.7358 14.1423 93.2158 13.9709 92.8044 13.628C92.4044 13.2966 92.2044 12.8338 92.2044 12.2395V11.4681C91.9873 11.8567 91.7016 12.2052 91.3473 12.5138C91.0045 12.8224 90.6274 13.0624 90.216 13.2338C89.8045 13.4052 89.3931 13.4909 88.9817 13.4909C88.0789 13.4909 87.2789 13.2852 86.5818 12.8738C85.8961 12.4624 85.3533 11.8967 84.9533 11.1767C84.5647 10.4567 84.3705 9.6282 84.3705 8.69109C84.3705 7.75399 84.5762 6.92545 84.9876 6.20548C85.399 5.4855 85.9647 4.91981 86.6847 4.5084C87.4046 4.09698 88.2275 3.89128 89.1531 3.89128C90.0902 3.89128 90.9188 4.09698 91.6388 4.5084C92.3587 4.91981 92.9244 5.4855 93.3358 6.20548C93.7472 6.92545 93.953 7.75399 93.953 8.69109V11.4338C93.953 11.7195 93.9987 11.9424 94.0901 12.1024C94.1815 12.2624 94.3301 12.3424 94.5358 12.3424C94.8101 12.3424 95.0615 12.1881 95.29 11.8795C95.53 11.571 95.7186 11.1424 95.8557 10.5939C95.9929 10.0339 96.0614 9.39964 96.0614 8.69109C96.0614 7.67399 95.89 6.74831 95.5472 5.91406C95.2158 5.06838 94.7415 4.33698 94.1244 3.71986C93.5073 3.10274 92.7759 2.62847 91.9302 2.29705C91.0959 1.95421 90.1702 1.78279 89.1531 1.78279C88.1475 1.78279 87.2218 1.95421 86.3761 2.29705C85.5304 2.62847 84.799 3.10274 84.1819 3.71986C83.5648 4.33698 83.0848 5.06838 82.742 5.91406C82.4105 6.74831 82.2448 7.67399 82.2448 8.69109C82.2448 9.69677 82.4105 10.6224 82.742 11.4681C83.0848 12.3138 83.5648 13.0452 84.1819 13.6623C84.799 14.2795 85.5304 14.7537 86.3761 15.0851C87.2218 15.428 88.1475 15.5994 89.1531 15.5994C89.6103 15.5994 90.1017 15.5423 90.6274 15.428C91.1645 15.3251 91.6216 15.188 91.9987 15.0166C92.3873 14.8223 92.7016 14.7994 92.9416 14.948C93.193 15.0966 93.3187 15.3823 93.3187 15.8051C93.3187 16.1137 93.1416 16.3822 92.7873 16.6108C92.433 16.8508 91.9416 17.0393 91.313 17.1765C90.6845 17.3136 89.9645 17.3822 89.1531 17.3822ZM89.1531 11.691C89.7474 11.691 90.2674 11.5653 90.7131 11.3138C91.1588 11.051 91.5073 10.6967 91.7588 10.251C92.0216 9.79391 92.153 9.27393 92.153 8.69109C92.153 8.09683 92.0216 7.57685 91.7588 7.13115C91.5073 6.68546 91.1588 6.3369 90.7131 6.08548C90.2674 5.82263 89.7474 5.69121 89.1531 5.69121C88.5589 5.69121 88.0389 5.82263 87.5932 6.08548C87.1475 6.3369 86.7932 6.68546 86.5304 7.13115C86.279 7.57685 86.1533 8.09683 86.1533 8.69109C86.1533 9.27393 86.279 9.79391 86.5304 10.251C86.7932 10.6967 87.1475 11.051 87.5932 11.3138C88.0389 11.5653 88.5589 11.691 89.1531 11.691Z" fill="white" fill-opacity="0.9"/>
<path d="M104.32 13.4395C103.405 13.4395 102.588 13.2338 101.868 12.8224C101.16 12.3995 100.6 11.8338 100.188 11.1253C99.7884 10.4053 99.5884 9.59392 99.5884 8.69109C99.5884 7.76542 99.7884 6.94259 100.188 6.22262C100.588 5.50264 101.137 4.94267 101.834 4.54268C102.531 4.13127 103.331 3.92556 104.234 3.92556C105.582 3.92556 106.702 4.43983 107.594 5.46836C107.754 5.65121 107.811 5.83978 107.765 6.03405C107.72 6.22833 107.594 6.39975 107.388 6.54832C107.228 6.6626 107.051 6.7026 106.857 6.66831C106.662 6.6226 106.485 6.51975 106.325 6.35976C105.765 5.76549 105.068 5.46836 104.234 5.46836C103.354 5.46836 102.64 5.76549 102.091 6.35976C101.543 6.94259 101.268 7.7197 101.268 8.69109C101.268 9.30821 101.394 9.85676 101.646 10.3367C101.908 10.8167 102.268 11.1996 102.725 11.4853C103.183 11.7595 103.714 11.8967 104.32 11.8967C105.097 11.8967 105.725 11.6967 106.205 11.2967C106.388 11.1481 106.577 11.0681 106.771 11.0567C106.965 11.0339 107.137 11.0853 107.285 11.211C107.48 11.371 107.588 11.5538 107.611 11.7595C107.634 11.9538 107.565 12.131 107.405 12.291C106.582 13.0566 105.554 13.4395 104.32 13.4395Z" fill="white" fill-opacity="0.9"/>
<path d="M111.221 13.3709C110.649 13.3709 110.364 13.0852 110.364 12.5138V4.85124C110.364 4.27983 110.649 3.99413 111.221 3.99413C111.792 3.99413 112.078 4.27983 112.078 4.85124V5.17694C112.421 4.77696 112.838 4.46268 113.329 4.23412C113.832 4.00556 114.375 3.89128 114.958 3.89128C115.644 3.89128 116.152 4.00556 116.484 4.23412C116.826 4.45126 116.958 4.7141 116.878 5.02266C116.821 5.26265 116.706 5.42265 116.535 5.50265C116.364 5.57121 116.164 5.58264 115.935 5.53693C115.204 5.38836 114.546 5.37694 113.964 5.50265C113.381 5.62835 112.918 5.86263 112.575 6.20548C112.244 6.54832 112.078 6.98259 112.078 7.50828V12.5138C112.078 13.0852 111.792 13.3709 111.221 13.3709Z" fill="white" fill-opacity="0.9"/>
<path d="M122.42 13.4395C121.471 13.4395 120.625 13.2395 119.883 12.8395C119.151 12.4281 118.574 11.8681 118.151 11.1596C117.74 10.4396 117.534 9.61677 117.534 8.69109C117.534 7.75399 117.728 6.93116 118.117 6.22262C118.517 5.50264 119.066 4.94267 119.763 4.54268C120.46 4.13127 121.26 3.92556 122.163 3.92556C123.054 3.92556 123.82 4.12556 124.46 4.52554C125.1 4.9141 125.585 5.45693 125.917 6.15405C126.26 6.83974 126.431 7.63399 126.431 8.53681C126.431 8.75395 126.357 8.9368 126.208 9.08536C126.06 9.2225 125.871 9.29107 125.642 9.29107H119.128C119.254 10.0796 119.614 10.7253 120.208 11.2281C120.814 11.7195 121.551 11.9653 122.42 11.9653C122.774 11.9653 123.134 11.9024 123.5 11.7767C123.877 11.6396 124.18 11.4853 124.408 11.3138C124.58 11.1881 124.762 11.1253 124.957 11.1253C125.162 11.1139 125.34 11.171 125.488 11.2967C125.682 11.4681 125.785 11.6567 125.797 11.8624C125.808 12.0681 125.717 12.2452 125.522 12.3938C125.134 12.7024 124.648 12.9538 124.065 13.1481C123.494 13.3423 122.945 13.4395 122.42 13.4395ZM122.163 5.39979C121.317 5.39979 120.637 5.63407 120.123 6.10262C119.608 6.57118 119.283 7.17687 119.146 7.91969H124.854C124.751 7.18829 124.471 6.58832 124.014 6.11976C123.557 5.63978 122.94 5.39979 122.163 5.39979Z" fill="white" fill-opacity="0.9"/>
<path d="M131.498 13.3538C131.143 13.3538 130.869 13.1652 130.675 12.7881L127.041 5.12552C126.949 4.93124 126.938 4.74267 127.006 4.55982C127.086 4.36555 127.235 4.21698 127.452 4.11413C127.646 4.01127 127.841 3.99413 128.035 4.0627C128.241 4.13127 128.395 4.26269 128.498 4.45697L131.48 10.8853L134.429 4.45697C134.532 4.26269 134.686 4.13127 134.892 4.0627C135.109 3.99413 135.326 4.01127 135.543 4.11413C135.749 4.20555 135.886 4.3484 135.955 4.54268C136.023 4.73696 136.012 4.93124 135.92 5.12552L132.286 12.7881C132.115 13.1652 131.852 13.3538 131.498 13.3538Z" fill="white" fill-opacity="0.9"/>
<path d="M138.592 13.3881C138.34 13.3881 138.129 13.3081 137.958 13.1481C137.798 12.9766 137.718 12.7652 137.718 12.5138V4.86838C137.718 4.60554 137.798 4.39412 137.958 4.23412C138.129 4.07413 138.34 3.99413 138.592 3.99413C138.855 3.99413 139.066 4.07413 139.226 4.23412C139.386 4.39412 139.466 4.60554 139.466 4.86838V5.05695C139.82 4.70268 140.249 4.42269 140.752 4.21698C141.255 4.01127 141.797 3.90842 142.38 3.90842C143.169 3.90842 143.872 4.07984 144.489 4.42269C145.117 4.7541 145.609 5.24551 145.963 5.89692C146.329 6.54832 146.512 7.34829 146.512 8.29682V12.5138C146.512 12.7652 146.426 12.9766 146.254 13.1481C146.094 13.3081 145.889 13.3881 145.637 13.3881C145.386 13.3881 145.175 13.3081 145.003 13.1481C144.843 12.9766 144.763 12.7652 144.763 12.5138V8.29682C144.763 7.32543 144.5 6.61689 143.975 6.17119C143.46 5.71407 142.815 5.4855 142.037 5.4855C141.557 5.4855 141.123 5.58264 140.735 5.77692C140.346 5.9712 140.038 6.23405 139.809 6.56546C139.58 6.88545 139.466 7.25686 139.466 7.6797V12.5138C139.466 12.7652 139.386 12.9766 139.226 13.1481C139.066 13.3081 138.855 13.3881 138.592 13.3881Z" fill="white" fill-opacity="0.9"/>
<path d="M153.311 13.4395C152.477 13.4395 151.728 13.2338 151.065 12.8224C150.402 12.3995 149.877 11.8338 149.488 11.1253C149.111 10.4053 148.922 9.59392 148.922 8.69109C148.922 7.78827 149.128 6.97687 149.54 6.2569C149.962 5.53693 150.528 4.97124 151.237 4.55982C151.957 4.13698 152.762 3.92556 153.654 3.92556C154.545 3.92556 155.345 4.13698 156.054 4.55982C156.762 4.97124 157.322 5.53693 157.734 6.2569C158.156 6.97687 158.368 7.78827 158.368 8.69109V12.5138C158.368 12.7652 158.282 12.9766 158.111 13.1481C157.951 13.3081 157.745 13.3881 157.494 13.3881C157.242 13.3881 157.031 13.3081 156.859 13.1481C156.699 12.9766 156.619 12.7652 156.619 12.5138V11.8795C156.219 12.3595 155.734 12.7424 155.162 13.0281C154.602 13.3023 153.985 13.4395 153.311 13.4395ZM153.654 11.8967C154.237 11.8967 154.757 11.7595 155.214 11.4853C155.671 11.1996 156.031 10.8167 156.294 10.3367C156.556 9.84533 156.688 9.29678 156.688 8.69109C156.688 8.07397 156.556 7.52542 156.294 7.04544C156.031 6.55403 155.671 6.17119 155.214 5.89692C154.757 5.61121 154.237 5.46836 153.654 5.46836C153.082 5.46836 152.562 5.61121 152.094 5.89692C151.637 6.17119 151.271 6.55403 150.997 7.04544C150.734 7.52542 150.602 8.07397 150.602 8.69109C150.602 9.29678 150.734 9.84533 150.997 10.3367C151.271 10.8167 151.637 11.1996 152.094 11.4853C152.562 11.7595 153.082 11.8967 153.654 11.8967Z" fill="white" fill-opacity="0.9"/>
<path d="M161.467 13.6452C161.147 13.6452 160.867 13.5309 160.627 13.3023C160.399 13.0624 160.284 12.7824 160.284 12.4624C160.284 12.131 160.399 11.851 160.627 11.6224C160.867 11.3824 161.147 11.2624 161.467 11.2624C161.799 11.2624 162.079 11.3824 162.307 11.6224C162.536 11.851 162.65 12.131 162.65 12.4624C162.65 12.7824 162.536 13.0624 162.307 13.3023C162.079 13.5309 161.799 13.6452 161.467 13.6452Z" fill="white" fill-opacity="0.9"/>
<path d="M169.306 13.4395C168.392 13.4395 167.575 13.2338 166.855 12.8224C166.146 12.3995 165.586 11.8338 165.175 11.1253C164.775 10.4053 164.575 9.59392 164.575 8.69109C164.575 7.76542 164.775 6.94259 165.175 6.22262C165.575 5.50264 166.123 4.94267 166.82 4.54268C167.518 4.13127 168.317 3.92556 169.22 3.92556C170.569 3.92556 171.689 4.43983 172.58 5.46836C172.74 5.65121 172.797 5.83978 172.752 6.03405C172.706 6.22833 172.58 6.39975 172.374 6.54832C172.214 6.6626 172.037 6.7026 171.843 6.66831C171.649 6.6226 171.472 6.51975 171.312 6.35976C170.752 5.76549 170.055 5.46836 169.22 5.46836C168.34 5.46836 167.626 5.76549 167.078 6.35976C166.529 6.94259 166.255 7.7197 166.255 8.69109C166.255 9.30821 166.38 9.85676 166.632 10.3367C166.895 10.8167 167.255 11.1996 167.712 11.4853C168.169 11.7595 168.7 11.8967 169.306 11.8967C170.083 11.8967 170.712 11.6967 171.192 11.2967C171.375 11.1481 171.563 11.0681 171.757 11.0567C171.952 11.0339 172.123 11.0853 172.272 11.211C172.466 11.371 172.574 11.5538 172.597 11.7595C172.62 11.9538 172.552 12.131 172.392 12.291C171.569 13.0566 170.54 13.4395 169.306 13.4395Z" fill="white" fill-opacity="0.9"/>
<path d="M179.601 13.4395C178.676 13.4395 177.859 13.2395 177.15 12.8395C176.442 12.4281 175.882 11.8681 175.47 11.1596C175.07 10.4396 174.87 9.61677 174.87 8.69109C174.87 7.75399 175.07 6.93116 175.47 6.22262C175.882 5.50264 176.442 4.94267 177.15 4.54268C177.859 4.13127 178.676 3.92556 179.601 3.92556C180.516 3.92556 181.327 4.13127 182.036 4.54268C182.744 4.94267 183.298 5.50264 183.698 6.22262C184.11 6.93116 184.315 7.75399 184.315 8.69109C184.315 9.61677 184.115 10.4396 183.716 11.1596C183.316 11.8681 182.761 12.4281 182.053 12.8395C181.344 13.2395 180.527 13.4395 179.601 13.4395ZM179.601 11.8967C180.196 11.8967 180.721 11.7595 181.178 11.4853C181.636 11.211 181.99 10.8339 182.241 10.3539C182.504 9.87391 182.636 9.31964 182.636 8.69109C182.636 8.06255 182.504 7.50828 182.241 7.0283C181.99 6.53689 181.636 6.15405 181.178 5.87977C180.721 5.6055 180.196 5.46836 179.601 5.46836C179.007 5.46836 178.481 5.6055 178.024 5.87977C177.567 6.15405 177.207 6.53689 176.944 7.0283C176.681 7.50828 176.55 8.06255 176.55 8.69109C176.55 9.31964 176.681 9.87391 176.944 10.3539C177.207 10.8339 177.567 11.211 178.024 11.4853C178.481 11.7595 179.007 11.8967 179.601 11.8967Z" fill="white" fill-opacity="0.9"/>
<path d="M187.792 13.3881C187.541 13.3881 187.329 13.3081 187.158 13.1481C186.998 12.9766 186.918 12.7652 186.918 12.5138V4.88553C186.918 4.62268 186.998 4.41126 187.158 4.25127C187.329 4.09127 187.541 4.01127 187.792 4.01127C188.055 4.01127 188.266 4.09127 188.426 4.25127C188.586 4.41126 188.666 4.61125 188.666 4.85124C188.963 4.55411 189.318 4.32555 189.729 4.16555C190.14 3.99413 190.586 3.90842 191.066 3.90842C192.266 3.90842 193.169 4.35983 193.775 5.26265C194.106 4.83981 194.529 4.5084 195.043 4.26841C195.557 4.02842 196.135 3.90842 196.775 3.90842C197.757 3.90842 198.557 4.22841 199.174 4.86838C199.792 5.50836 200.1 6.42261 200.1 7.61114V12.5138C200.1 12.7652 200.02 12.9766 199.86 13.1481C199.7 13.3081 199.489 13.3881 199.226 13.3881C198.974 13.3881 198.763 13.3081 198.592 13.1481C198.432 12.9766 198.352 12.7652 198.352 12.5138V7.61114C198.352 6.89116 198.174 6.35976 197.82 6.01691C197.466 5.66264 197.003 5.4855 196.432 5.4855C195.837 5.4855 195.346 5.69121 194.957 6.10262C194.58 6.51404 194.392 7.03973 194.392 7.6797V12.5138C194.392 12.7652 194.312 12.9766 194.152 13.1481C193.992 13.3081 193.78 13.3881 193.518 13.3881C193.266 13.3881 193.055 13.3081 192.883 13.1481C192.723 12.9766 192.643 12.7652 192.643 12.5138V7.61114C192.643 6.89116 192.466 6.35976 192.112 6.01691C191.758 5.66264 191.295 5.4855 190.723 5.4855C190.129 5.4855 189.638 5.69121 189.249 6.10262C188.861 6.51404 188.666 7.03973 188.666 7.6797V12.5138C188.666 12.7652 188.586 12.9766 188.426 13.1481C188.266 13.3081 188.055 13.3881 187.792 13.3881Z" fill="white" fill-opacity="0.9"/>
</svg>
