<svg width="43" height="30" viewBox="0 0 43 30" fill="none" xmlns="http://www.w3.org/2000/svg">
<path fill-rule="evenodd" clip-rule="evenodd" d="M0.5 0C0.223858 0 0 0.223858 0 0.5V20.1552C0 20.4313 0.223858 20.6552 0.5 20.6552H6V29.4655C6 29.7417 6.22386 29.9655 6.5 29.9655H33.5C33.7761 29.9655 34 29.7417 34 29.4655V24.7931H42.5C42.7761 24.7931 43 24.5692 43 24.2931V4.63793C43 4.36179 42.7761 4.13793 42.5 4.13793H28V0.5C28 0.223858 27.7761 0 27.5 0H0.5ZM27 4.13793V1.71162L24.5865 4.13793H27ZM23.3838 5.13793H16.7026L20.8531 9.31034H33.5C33.7761 9.31034 34 9.5342 34 9.81034V12.4739L41.2974 5.13793H27.5H23.3838ZM23.176 4.13793L26.2974 1H1.70262L9.96922 9.31034H15V4.63793C15 4.36179 15.2239 4.13793 15.5 4.13793H23.176ZM8.55873 9.31034L1 1.71163V19.6552H6V15.6429L3.52208 17.7297C3.31086 17.9076 2.99543 17.8806 2.81755 17.6694C2.63967 17.4582 2.6667 17.1427 2.87792 16.9648L6 14.3356V9.81034C6 9.5342 6.22386 9.31034 6.5 9.31034H8.55873ZM7 14.5713C7.00001 14.569 7.00001 14.5668 7 14.5645V11.022L16.1124 20.1826L8.87792 26.2752C8.6667 26.4531 8.63968 26.7685 8.81755 26.9797C8.99543 27.1909 9.31086 27.218 9.52208 27.0401L16.8201 20.894L18.2276 22.3089C19.2049 23.2915 20.7951 23.2915 21.7724 22.3089L23.17 20.904L30.0166 27.0302C30.2224 27.2144 30.5385 27.1968 30.7226 26.991C30.9067 26.7853 30.8892 26.4692 30.6834 26.285L23.8762 20.194L33 11.022V16.2481V16.2529V24.2931V28.9655H7V20.1552V14.5713ZM42 23.7931H34V17.369L39.0166 21.8578C39.2224 22.042 39.5385 22.0244 39.7226 21.8186C39.9067 21.6128 39.8892 21.2967 39.6834 21.1126L34 16.0271V13.8919L42 5.84956V23.7931ZM20.8458 10.3103C20.7357 10.3503 20.6143 10.3503 20.5042 10.3103H15.6709C15.6176 10.3297 15.56 10.3403 15.5 10.3403C15.44 10.3403 15.3824 10.3297 15.3291 10.3103H7.70262L17.2045 19.8625L18.9365 21.6037C19.523 22.1932 20.477 22.1932 21.0635 21.6037L22.7955 19.8625L32.2974 10.3103H20.8458ZM16 5.84956L19.4426 9.31034H16V5.84956Z" fill="white"/>
</svg>
