<svg width="37" height="32" viewBox="0 0 37 32" fill="none" xmlns="http://www.w3.org/2000/svg">
<path d="M8.14972 14.0961L13.9847 17.6061C14.1547 17.7161 14.3397 17.7161 14.5397 17.6061C14.7497 17.4961 14.8547 17.3261 14.8547 17.0961C14.8547 16.8861 14.7597 16.7161 14.5697 16.5861L9.49972 13.5561L14.5697 10.5261C14.7597 10.4061 14.8547 10.2311 14.8547 10.0011C14.8547 9.77114 14.7547 9.61614 14.5547 9.53614C14.3647 9.44614 14.1747 9.44614 13.9847 9.53614L8.14972 13.0461C7.93972 13.2061 7.83472 13.3811 7.83472 13.5711C7.83472 13.8011 7.93972 13.9761 8.14972 14.0961Z" fill="#0D1F22"/>
<path d="M16.1128 19.7661C16.2328 19.9361 16.3978 20.0211 16.6078 20.0211C16.7178 20.0211 16.8228 19.9961 16.9228 19.9461C17.0229 19.8961 17.0978 19.8111 17.1479 19.6911L21.8578 7.93114C21.9278 7.73114 21.9128 7.54614 21.8128 7.37614C21.7129 7.19614 21.5529 7.10614 21.3328 7.10614C21.0628 7.10614 20.8828 7.22114 20.7928 7.45114L16.0828 19.1961C15.9928 19.4161 16.0028 19.6061 16.1128 19.7661Z" fill="#0D1F22"/>
<path d="M23.3691 17.6061C23.5791 17.7161 23.7691 17.7161 23.9391 17.6061L29.7741 14.0961C29.9841 13.9761 30.0891 13.8011 30.0891 13.5711C30.0891 13.3811 29.9841 13.2061 29.7741 13.0461L23.9391 9.53614C23.7491 9.44614 23.5541 9.44614 23.3541 9.53614C23.1641 9.61614 23.0691 9.77114 23.0691 10.0011C23.0691 10.2311 23.1641 10.4061 23.3541 10.5261L28.4391 13.5561L23.3541 16.5861C23.1641 16.7161 23.0691 16.8861 23.0691 17.0961C23.0691 17.3261 23.1691 17.4961 23.3691 17.6061Z" fill="#0D1F22"/>
<path fill-rule="evenodd" clip-rule="evenodd" d="M14.6312 27.0785H1.99829C1.44601 27.0785 0.998291 26.6308 0.998291 26.0785V1.99829C0.998291 1.44601 1.44601 0.998291 1.99829 0.998291H35.9387C36.4909 0.998291 36.9387 1.44601 36.9387 1.99829V26.0785C36.9387 26.6308 36.4909 27.0785 35.9387 27.0785H23.3073L25.8443 30.1846C25.9665 30.3342 25.9916 30.5408 25.9088 30.7152C25.826 30.8897 25.6502 31.0009 25.4571 31.0009H19.4978C19.4881 31.0015 19.4783 31.0018 19.4685 31.0018H12.4808C12.2876 31.0018 12.1118 30.8906 12.029 30.7161C11.9462 30.5416 11.9713 30.3351 12.0935 30.1855L14.6312 27.0785ZM1.99829 23.6521H35.9387V1.99829H1.99829V23.6521ZM1.99829 24.6521H35.9387V26.0785H22.3916C22.2888 26.0439 22.1763 26.0433 22.0721 26.0785H15.8632C15.7606 26.0445 15.65 26.0451 15.5487 26.0785H1.99829V24.6521ZM15.9224 27.0785L13.5347 30.0018H18.44C18.4497 30.0012 18.4595 30.0009 18.4693 30.0009H24.4031L22.0161 27.0785H15.9224Z" fill="#0D1F22"/>
</svg>
