<svg width="36" height="31" viewBox="0 0 36 31" fill="none" xmlns="http://www.w3.org/2000/svg">
<path fill-rule="evenodd" clip-rule="evenodd" d="M1 22.2278V22.6927H35V22.2278V21.7278V2V1H34H2H1V2V21.7278V22.2278ZM1 24.1225V23.6927H35V24.1225V25.1225H34H21.4264C21.3251 25.089 21.2145 25.0885 21.1118 25.1225H14.8882C14.7855 25.0885 14.6749 25.089 14.5736 25.1225H2H1V24.1225ZM13.6561 26.1225H1C0.447715 26.1225 0 25.6748 0 25.1225V22.2278V1C0 0.447715 0.447715 0 1 0H35C35.5523 0 36 0.447715 36 1V22.2278V25.1225C36 25.6748 35.5523 26.1225 35 26.1225H22.3439L24.8872 29.2364C25.0094 29.386 25.0345 29.5925 24.9517 29.767C24.869 29.9415 24.6931 30.0527 24.5 30.0527H18.5H17.5H11.5C11.3069 30.0527 11.131 29.9415 11.0483 29.767C10.9655 29.5925 10.9906 29.386 11.1128 29.2364L13.6561 26.1225ZM14.9473 26.1225L12.554 29.0527H17.5H18.5H23.446L21.0527 26.1225H14.9473ZM7.18125 13.1046L13.0163 16.6146C13.1863 16.7246 13.3713 16.7246 13.5713 16.6146C13.7812 16.5046 13.8863 16.3346 13.8863 16.1046C13.8863 15.8946 13.7913 15.7246 13.6013 15.5946L8.53125 12.5646L13.6013 9.5346C13.7913 9.4146 13.8863 9.2396 13.8863 9.0096C13.8863 8.7796 13.7863 8.6246 13.5863 8.5446C13.3963 8.4546 13.2063 8.4546 13.0163 8.5446L7.18125 12.0546C6.97125 12.2146 6.86625 12.3896 6.86625 12.5796C6.86625 12.8096 6.97125 12.9846 7.18125 13.1046ZM15.1444 18.7746C15.2644 18.9446 15.4294 19.0296 15.6394 19.0296C15.7494 19.0296 15.8544 19.0046 15.9544 18.9546C16.0544 18.9046 16.1294 18.8196 16.1794 18.6996L20.8894 6.9396C20.9594 6.7396 20.9444 6.5546 20.8444 6.3846C20.7444 6.2046 20.5844 6.1146 20.3644 6.1146C20.0944 6.1146 19.9144 6.2296 19.8244 6.4596L15.1144 18.2046C15.0244 18.4246 15.0344 18.6146 15.1444 18.7746ZM22.4006 16.6146C22.6106 16.7246 22.8006 16.7246 22.9706 16.6146L28.8056 13.1046C29.0156 12.9846 29.1206 12.8096 29.1206 12.5796C29.1206 12.3896 29.0156 12.2146 28.8056 12.0546L22.9706 8.5446C22.7806 8.4546 22.5856 8.4546 22.3856 8.5446C22.1956 8.6246 22.1006 8.7796 22.1006 9.0096C22.1006 9.2396 22.1956 9.4146 22.3856 9.5346L27.4706 12.5646L22.3856 15.5946C22.1956 15.7246 22.1006 15.8946 22.1006 16.1046C22.1006 16.3346 22.2006 16.5046 22.4006 16.6146Z" fill="white"/>
</svg>
