<svg width="30" height="31" viewBox="0 0 30 31" fill="none" xmlns="http://www.w3.org/2000/svg">
<path fill-rule="evenodd" clip-rule="evenodd" d="M28.7962 0.978978C27.4912 -0.325989 25.3757 -0.326326 24.0703 0.977968L24.0693 0.978994L14.7656 10.2826L4.87337 0.390322C4.67811 0.19506 4.36152 0.19506 4.16626 0.390322L0.146447 4.41014C-0.0488155 4.6054 -0.0488155 4.92198 0.146447 5.11724L10.0387 15.0095L2.63024 22.418C2.57535 22.4729 2.534 22.5398 2.50945 22.6135L0.499544 28.6432C0.439655 28.8228 0.486416 29.0209 0.620332 29.1548C0.754248 29.2888 0.952332 29.3355 1.132 29.2756L7.16172 27.2657C7.23536 27.2412 7.30227 27.1998 7.35716 27.1449L14.7656 19.7364L24.9353 29.9061C25.1306 30.1014 25.4472 30.1014 25.6424 29.9061L29.6622 25.8863C29.8575 25.691 29.8575 25.3744 29.6622 25.1792L19.4926 15.0095L28.7962 5.70592C30.1015 4.40061 30.1015 2.28428 28.7962 0.978978ZM28.0891 1.68608C27.2956 0.89264 26.0746 0.787399 25.1677 1.37036L28.4048 4.60744C28.9878 3.70057 28.8825 2.47953 28.0891 1.68608ZM15.4728 19.0293L18.7855 15.7166L28.6016 25.5327L25.2889 28.8454L15.4728 19.0293ZM18.5719 14.516L27.7355 5.35236L24.4228 2.03965L3.6909 22.7716L4.9937 24.0744L13.6847 15.3833C13.88 15.1881 14.1966 15.1881 14.3918 15.3833C14.5871 15.5786 14.5871 15.8952 14.3918 16.0904L5.70081 24.7815L7.00361 26.0843L14.2044 18.8834C14.2212 18.7783 14.2712 18.6805 14.3481 18.605L18.4065 14.6238C18.4555 14.5757 18.5119 14.5398 18.5719 14.516ZM6.07799 26.5729L3.2023 23.6972L1.76445 28.0107L6.07799 26.5729ZM10.7136 14.2702L1.20711 4.76369L4.51982 1.45098L6.52399 3.45516L5.20262 4.77653C5.00736 4.97179 5.00736 5.28837 5.20262 5.48363C5.39788 5.6789 5.71447 5.6789 5.90973 5.48363L7.2311 4.16226L8.46062 5.39179L6.46928 7.38313C6.27402 7.57839 6.27402 7.89497 6.46928 8.09023C6.66454 8.2855 6.98113 8.2855 7.17639 8.09023L9.16773 6.09889L10.0099 6.94109L8.68855 8.26246C8.49329 8.45772 8.49329 8.77431 8.68855 8.96957C8.88382 9.16483 9.2004 9.16483 9.39566 8.96957L10.717 7.6482L11.9466 8.87772L11.2952 9.52912C11.0999 9.72438 11.0999 10.041 11.2952 10.2362C11.4904 10.4315 11.807 10.4315 12.0023 10.2362L12.6537 9.58483L13.9945 10.9257L10.7136 14.2702Z" fill="#0D1F22"/>
</svg>
