<svg width="33" height="30" viewBox="0 0 33 30" fill="none" xmlns="http://www.w3.org/2000/svg">
<path fill-rule="evenodd" clip-rule="evenodd" d="M0.0141118 8.20968C0.00474622 8.37515 0 8.54186 0 8.70968C0 8.87749 0.00474622 9.0442 0.0141118 9.20968C0.176731 12.0829 1.73204 14.5836 4.01567 16.0475L5.33211 19.9968C5.40017 20.201 5.59124 20.3387 5.80645 20.3387H21.7742C22.0186 20.3387 22.2272 20.162 22.2674 19.9209L24.2029 8.30801C24.227 8.16303 24.1862 8.01476 24.0912 7.90262C23.9962 7.79047 23.8567 7.72581 23.7097 7.72581H17.3644C17.0657 5.06911 15.5719 2.77406 13.4333 1.39091C13.2876 1.2967 13.1389 1.20671 12.9874 1.12114C11.9001 0.506852 10.6675 0.119525 9.35404 0.0234745C9.14128 0.00791594 8.9264 0 8.70968 0C8.49295 0 8.27807 0.00791594 8.06531 0.0234745C6.75186 0.119525 5.51929 0.506852 4.43192 1.12114C4.28043 1.20671 4.13176 1.2967 3.98608 1.39091C1.71862 2.85737 0.176028 5.34889 0.0141118 8.20968ZM6.16683 19.3387L5.2955 16.7247C6.1564 17.0919 7.08849 17.3244 8.06531 17.3959C8.27807 17.4114 8.49295 17.4194 8.70968 17.4194C8.9264 17.4194 9.14129 17.4114 9.35404 17.3959C10.6839 17.2986 11.9308 16.9028 13.0281 16.2751C13.1193 16.2229 13.2095 16.1691 13.2986 16.1138C15.6395 14.6599 17.2401 12.1267 17.4052 9.20968C17.4143 9.04951 17.419 8.88818 17.4193 8.72581H23.1194L21.3506 19.3387H6.16683ZM1.01595 9.20968C1.17084 11.6293 2.44188 13.7453 4.31968 15.0483C4.91301 14.6164 5.55516 14.2826 6.22395 14.047C5.61703 12.4908 5.28565 10.854 5.22981 9.20968H1.01595ZM5.22981 8.20968H1.01595C1.17173 5.77489 2.45726 3.64689 4.35772 2.34474C4.94424 2.77057 5.57871 3.09996 6.23941 3.33291C5.62266 4.90083 5.28612 6.55147 5.22981 8.20968ZM6.23043 9.20968C6.28706 10.7637 6.60784 12.3101 7.19275 13.7776C8.19274 13.5709 9.22662 13.5709 10.2266 13.7776C10.8115 12.3101 11.1323 10.7637 11.1889 9.20968H6.23043ZM6.23043 8.20968C6.28757 6.64164 6.61365 5.08138 7.20863 3.60212C8.19822 3.80582 9.22114 3.80582 10.2107 3.60212C10.8057 5.08138 11.1318 6.64164 11.1889 8.20968H6.23043ZM12.1895 9.20968C12.1337 10.854 11.8023 12.4908 11.1954 14.047C11.8642 14.2826 12.5063 14.6164 13.0997 15.0483C14.9775 13.7453 16.2485 11.6293 16.4034 9.20968H12.1895ZM16.4034 8.20968H12.1895C12.1332 6.55147 11.7967 4.90083 11.1799 3.33291C11.8406 3.09996 12.4751 2.77057 13.0616 2.34474C14.9621 3.64689 16.2476 5.77489 16.4034 8.20968ZM12.1037 1.78506C11.4751 1.47633 10.7983 1.25071 10.0872 1.12256C10.3415 1.54341 10.5727 1.97402 10.781 2.41263C11.2391 2.25672 11.6832 2.04752 12.1037 1.78506ZM9.79141 2.6635C9.51007 2.09257 9.18654 1.53682 8.8208 1.00078C8.78383 1.00026 8.74678 1 8.70968 1C8.67257 1 8.63553 1.00026 8.59855 1.00078C8.23281 1.53682 7.90928 2.09257 7.62795 2.6635C8.34357 2.78536 9.07578 2.78536 9.79141 2.6635ZM6.63837 2.41263C6.84666 1.97402 7.0779 1.54341 7.33212 1.12256C6.62101 1.25071 5.94424 1.47632 5.3157 1.78506C5.73617 2.04752 6.18025 2.25672 6.63837 2.41263ZM12.149 15.6116C11.7203 15.342 11.267 15.1275 10.7992 14.9682C10.5863 15.42 10.349 15.8635 10.0873 16.2966C10.8152 16.1653 11.5075 15.9318 12.149 15.6116ZM8.8208 16.4186C9.19493 15.8702 9.5249 15.3013 9.81071 14.7165C9.08242 14.5913 8.33694 14.5913 7.60865 14.7165C7.89446 15.3013 8.22442 15.8702 8.59855 16.4186C8.63553 16.4191 8.67257 16.4194 8.70968 16.4194C8.74678 16.4194 8.78382 16.4191 8.8208 16.4186ZM7.33201 16.2966C7.07039 15.8635 6.83311 15.42 6.62013 14.9682C6.15236 15.1275 5.6991 15.342 5.27038 15.6116C5.91181 15.9318 6.60415 16.1653 7.33201 16.2966ZM26.1452 20.3226C26.1452 20.0464 25.9213 19.8226 25.6452 19.8226C25.369 19.8226 25.1452 20.0464 25.1452 20.3226V20.9999C25.1452 21.8216 24.4734 22.4847 23.6518 22.474L7.07086 22.2583C6.10014 22.2457 5.30645 23.0291 5.30645 23.9999V24.6774C5.30645 24.9536 5.53031 25.1774 5.80645 25.1774C6.08259 25.1774 6.30645 24.9536 6.30645 24.6774V23.9999C6.30645 23.5865 6.64446 23.2529 7.05786 23.2583L23.6388 23.4739C25.0177 23.4918 26.1452 22.379 26.1452 20.9999V20.3226ZM11.5806 27.5806C11.5806 28.3645 10.9452 29 10.1613 29C9.3774 29 8.74194 28.3645 8.74194 27.5806C8.74194 26.7968 9.3774 26.1613 10.1613 26.1613C10.9452 26.1613 11.5806 26.7968 11.5806 27.5806ZM12.5806 27.5806C12.5806 28.9168 11.4975 30 10.1613 30C8.82512 30 7.74194 28.9168 7.74194 27.5806C7.74194 26.2445 8.82512 25.1613 10.1613 25.1613C11.4975 25.1613 12.5806 26.2445 12.5806 27.5806ZM19.8387 29C20.6226 29 21.2581 28.3645 21.2581 27.5806C21.2581 26.7968 20.6226 26.1613 19.8387 26.1613C19.0548 26.1613 18.4194 26.7968 18.4194 27.5806C18.4194 28.3645 19.0548 29 19.8387 29ZM19.8387 30C21.1749 30 22.2581 28.9168 22.2581 27.5806C22.2581 26.2445 21.1749 25.1613 19.8387 25.1613C18.5025 25.1613 17.4194 26.2445 17.4194 27.5806C17.4194 28.9168 18.5025 30 19.8387 30ZM31.3677 3.0871C31.2178 2.8872 30.9433 2.82867 30.7249 2.95002L26.3701 5.36937C26.248 5.43718 26.1599 5.55295 26.127 5.68865C26.0941 5.82435 26.1194 5.96762 26.1969 6.0838L27.0512 7.36532L25.154 17.3258C25.1023 17.5971 25.2803 17.8589 25.5516 17.9105C25.8229 17.9622 26.0847 17.7842 26.1363 17.5129L27.9333 8.07874L28.7496 8.63823C28.9363 8.76622 29.1858 8.75277 29.3577 8.60543L32.7448 5.70221C32.9448 5.53072 32.9775 5.23339 32.8194 5.02258L31.3677 3.0871ZM28.9983 7.59636L27.9096 6.85013L27.3297 5.98022L30.8294 4.03594L31.7383 5.24782L28.9983 7.59636Z" fill="white"/>
</svg>
