<svg width="257" height="297" viewBox="0 0 257 297" fill="none" xmlns="http://www.w3.org/2000/svg">
<mask id="path-1-outside-1" maskUnits="userSpaceOnUse" x="0" y="0" width="257" height="297" fill="black">
<rect fill="white" width="257" height="297"/>
<path fill-rule="evenodd" clip-rule="evenodd" d="M72.577 274.507C94.5486 287.062 119.485 293.34 147.385 293.34C185.051 293.34 216.439 281.657 241.55 258.29C246.432 253.407 248.525 248.002 247.827 242.073C247.13 235.795 243.816 230.215 237.888 225.332C233.354 221.496 228.122 219.927 222.194 220.624C216.265 220.973 210.51 223.414 204.93 227.948C190.282 240.155 171.101 246.258 147.385 246.258C128.901 246.258 112.684 242.073 98.7337 233.702C84.7834 224.984 73.7976 213.3 65.7762 198.652C58.1036 184.005 54.2672 167.264 54.2672 148.432C54.2672 118.787 62.6374 95.0717 79.3777 77.2852C96.118 59.1498 117.915 50.0821 144.77 50.0821C170.229 50.0821 191.503 59.1498 208.592 77.2852C213.475 82.1677 218.88 85.3065 224.809 86.7016C230.738 87.7478 236.144 86.5272 241.026 83.0396C247.304 78.5058 251.14 73.2745 252.535 67.3456C253.93 61.4167 252.187 55.6622 247.304 50.0821C220.101 18.694 185.923 3 144.77 3C117.218 3 92.8048 9.27761 71.5307 21.8328C50.2565 34.0393 33.5162 51.1284 21.3097 73.1001C9.10324 95.0717 3 120.182 3 148.432C3 175.983 9.10324 200.745 21.3097 222.717C33.865 244.34 50.954 261.603 72.577 274.507Z"/>
</mask>
<path fill-rule="evenodd" clip-rule="evenodd" d="M72.577 274.507C94.5486 287.062 119.485 293.34 147.385 293.34C185.051 293.34 216.439 281.657 241.55 258.29C246.432 253.407 248.525 248.002 247.827 242.073C247.13 235.795 243.816 230.215 237.888 225.332C233.354 221.496 228.122 219.927 222.194 220.624C216.265 220.973 210.51 223.414 204.93 227.948C190.282 240.155 171.101 246.258 147.385 246.258C128.901 246.258 112.684 242.073 98.7337 233.702C84.7834 224.984 73.7976 213.3 65.7762 198.652C58.1036 184.005 54.2672 167.264 54.2672 148.432C54.2672 118.787 62.6374 95.0717 79.3777 77.2852C96.118 59.1498 117.915 50.0821 144.77 50.0821C170.229 50.0821 191.503 59.1498 208.592 77.2852C213.475 82.1677 218.88 85.3065 224.809 86.7016C230.738 87.7478 236.144 86.5272 241.026 83.0396C247.304 78.5058 251.14 73.2745 252.535 67.3456C253.93 61.4167 252.187 55.6622 247.304 50.0821C220.101 18.694 185.923 3 144.77 3C117.218 3 92.8048 9.27761 71.5307 21.8328C50.2565 34.0393 33.5162 51.1284 21.3097 73.1001C9.10324 95.0717 3 120.182 3 148.432C3 175.983 9.10324 200.745 21.3097 222.717C33.865 244.34 50.954 261.603 72.577 274.507Z" fill="#FF7A00"/>
<path d="M72.577 274.507L71.0396 277.083L71.0639 277.098L71.0885 277.112L72.577 274.507ZM241.55 258.29L243.593 260.486L243.633 260.449L243.671 260.411L241.55 258.29ZM247.827 242.073L244.846 242.404L244.847 242.414L244.848 242.423L247.827 242.073ZM237.888 225.332L235.95 227.623L235.965 227.635L235.98 227.648L237.888 225.332ZM222.194 220.624L222.37 223.619L222.457 223.614L222.544 223.604L222.194 220.624ZM204.93 227.948L203.038 225.62L203.024 225.631L203.01 225.643L204.93 227.948ZM98.7337 233.702L97.1437 236.246L97.1668 236.261L97.1902 236.275L98.7337 233.702ZM65.7762 198.652L63.1187 200.045L63.1316 200.069L63.1449 200.093L65.7762 198.652ZM79.3777 77.2852L81.5623 79.3412L81.5723 79.3307L81.5821 79.32L79.3777 77.2852ZM208.592 77.2852L206.409 79.3426L206.439 79.375L206.471 79.4065L208.592 77.2852ZM224.809 86.7016L224.122 89.6218L224.205 89.6412L224.288 89.6559L224.809 86.7016ZM241.026 83.0396L242.77 85.4808L242.777 85.4763L242.783 85.4717L241.026 83.0396ZM252.535 67.3456L255.456 68.0327L255.456 68.0327L252.535 67.3456ZM247.304 50.0821L245.037 52.0469L245.042 52.0523L245.046 52.0576L247.304 50.0821ZM71.5307 21.8328L73.0237 24.4349L73.0396 24.4258L73.0554 24.4165L71.5307 21.8328ZM21.3097 73.1001L18.6873 71.6431L18.6873 71.6431L21.3097 73.1001ZM21.3097 222.717L18.6873 224.174L18.7011 224.198L18.7154 224.223L21.3097 222.717ZM147.385 290.34C119.952 290.34 95.5383 284.173 74.0654 271.902L71.0885 277.112C93.5589 289.952 119.018 296.34 147.385 296.34V290.34ZM239.506 256.094C215.007 278.891 184.374 290.34 147.385 290.34V296.34C185.728 296.34 217.871 284.422 243.593 260.486L239.506 256.094ZM244.848 242.423C245.42 247.291 243.776 251.821 239.428 256.169L243.671 260.411C249.088 254.994 251.629 248.713 250.807 241.722L244.848 242.423ZM235.98 227.648C241.445 232.148 244.252 237.064 244.846 242.404L250.809 241.741C250.007 234.526 246.188 228.282 239.795 223.017L235.98 227.648ZM222.544 223.604C227.652 223.003 232.054 224.326 235.95 227.623L239.825 223.042C234.653 218.666 228.592 216.851 221.843 217.645L222.544 223.604ZM206.822 230.276C212.019 226.054 217.191 223.924 222.37 223.619L222.017 217.629C215.338 218.022 209.001 220.775 203.038 225.62L206.822 230.276ZM147.385 249.258C171.626 249.258 191.542 243.01 206.851 230.253L203.01 225.643C189.022 237.299 170.575 243.258 147.385 243.258V249.258ZM97.1902 236.275C111.668 244.961 128.433 249.258 147.385 249.258V243.258C129.369 243.258 113.7 239.184 100.277 231.13L97.1902 236.275ZM63.1449 200.093C71.4093 215.185 82.7507 227.251 97.1437 236.246L100.324 231.159C86.8162 222.716 76.1859 211.416 68.4075 197.212L63.1449 200.093ZM51.2672 148.432C51.2672 167.681 55.1915 184.911 63.1187 200.045L68.4337 197.26C61.0156 183.099 57.2672 166.847 57.2672 148.432H51.2672ZM77.1931 75.2291C59.8217 93.6862 51.2672 118.196 51.2672 148.432H57.2672C57.2672 119.379 65.4531 96.4573 81.5623 79.3412L77.1931 75.2291ZM144.77 47.0821C117.16 47.0821 94.5351 56.4417 77.1733 75.2503L81.5821 79.32C97.701 61.8579 118.67 53.0821 144.77 53.0821V47.0821ZM210.775 75.2278C193.106 56.4762 171.035 47.0821 144.77 47.0821V53.0821C169.423 53.0821 189.9 61.8234 206.409 79.3426L210.775 75.2278ZM225.496 83.7813C220.18 82.5305 215.256 79.706 210.713 75.1638L206.471 79.4065C211.694 84.6295 217.58 88.0826 224.122 89.6218L225.496 83.7813ZM239.283 80.5984C235.058 83.616 230.469 84.654 225.331 83.7472L224.288 89.6559C231.007 90.8417 237.23 89.4384 242.77 85.4808L239.283 80.5984ZM249.615 66.6585C248.426 71.7106 245.126 76.3785 239.27 80.6076L242.783 85.4717C249.482 80.6331 253.854 74.8383 255.456 68.0327L249.615 66.6585ZM245.046 52.0576C249.448 57.0879 250.739 61.8817 249.615 66.6585L255.456 68.0327C257.122 60.9518 254.926 54.2366 249.562 48.1066L245.046 52.0576ZM144.77 6C185.044 6 218.398 21.3093 245.037 52.0469L249.571 48.1173C221.804 16.0788 186.802 0 144.77 0V6ZM73.0554 24.4165C93.816 12.1643 117.691 6 144.77 6V0C116.745 0 91.7937 6.39087 70.0059 19.2492L73.0554 24.4165ZM23.9322 74.557C35.8803 53.0503 52.2354 36.3626 73.0237 24.4349L70.0377 19.2307C48.2776 31.716 31.1521 49.2065 18.6873 71.6431L23.9322 74.557ZM6 148.432C6 120.628 12.0028 96.03 23.9322 74.557L18.6873 71.6431C6.20372 94.1135 0 119.737 0 148.432H6ZM23.9322 221.26C11.9966 199.776 6 175.524 6 148.432H0C0 176.443 6.20987 201.714 18.6873 224.174L23.9322 221.26ZM74.1143 271.931C52.9256 259.286 36.2016 242.389 23.9041 221.21L18.7154 224.223C31.5283 246.29 48.9825 263.92 71.0396 277.083L74.1143 271.931Z" fill="#FF7A00" mask="url(#path-1-outside-1)"/>
</svg>
