<svg width="31" height="30" viewBox="0 0 31 30" fill="none" xmlns="http://www.w3.org/2000/svg">
<path fill-rule="evenodd" clip-rule="evenodd" d="M25.9776 8.00619C25.9323 8.51543 26.2784 8.97682 26.78 9.07582C28.6158 9.43816 30 11.0585 30 13C30 15.2091 28.2091 17 26 17H22.5V18H26C28.7614 18 31 15.7614 31 13C31 10.5717 29.269 8.54779 26.9737 8.09475C26.9911 7.89852 27 7.70018 27 7.5C27 3.35786 23.1944 0 18.5 0C15.1989 0 12.3374 1.66036 10.9295 4.08624C10.6283 4.02962 10.3176 4 10 4C7.5807 4 5.56271 5.71825 5.09982 8.00098C5.06662 8.00033 5.03335 8 5 8C2.23858 8 0 10.2386 0 13C0 15.7614 2.23858 18 5 18H9.5V23.5H8.43699C8.21497 22.6374 7.43192 22 6.5 22C5.39543 22 4.5 22.8954 4.5 24C4.5 25.1046 5.39543 26 6.5 26C7.43192 26 8.21497 25.3626 8.43699 24.5H10C10.2761 24.5 10.5 24.2761 10.5 24V18V17.5V17H5C2.79086 17 1 15.2091 1 13C1 10.7909 2.79086 9 5 9C5.02679 9 5.05354 9.00026 5.08023 9.00079C5.56319 9.01025 5.98387 8.67313 6.07987 8.19971C6.4501 6.37395 8.06572 5 10 5C10.2553 5 10.5042 5.0238 10.7448 5.06903C11.1612 5.14731 11.5817 4.95466 11.7944 4.58819C13.009 2.49544 15.5257 1 18.5 1C22.7634 1 26 4.0241 26 7.5C26 7.67055 25.9924 7.83935 25.9776 8.00619ZM7.5 24C7.5 23.4477 7.05228 23 6.5 23C5.94772 23 5.5 23.4477 5.5 24C5.5 24.5523 5.94772 25 6.5 25C7.05228 25 7.5 24.5523 7.5 24ZM11.5 18H14.5V26.063C13.6374 26.285 13 27.0681 13 28C13 29.1046 13.8954 30 15 30C16.1046 30 17 29.1046 17 28C17 27.0681 16.3626 26.285 15.5 26.063V18V17.5V17H11.5V18ZM21.5 17V17.5V18V23.5H22.063C22.285 22.6374 23.0681 22 24 22C25.1046 22 26 22.8954 26 24C26 25.1046 25.1046 26 24 26C23.0681 26 22.285 25.3626 22.063 24.5H21C20.7239 24.5 20.5 24.2761 20.5 24V18H16.5V17H21.5ZM23 24C23 24.5523 23.4477 25 24 25C24.5523 25 25 24.5523 25 24C25 23.4477 24.5523 23 24 23C23.4477 23 23 23.4477 23 24ZM15 29C15.5523 29 16 28.5523 16 28C16 27.4477 15.5523 27 15 27C14.4477 27 14 27.4477 14 28C14 28.5523 14.4477 29 15 29Z" fill="white"/>
</svg>
