<svg width="543" height="612" viewBox="0 0 543 612" fill="none" xmlns="http://www.w3.org/2000/svg">
<mask id="mask0" mask-type="alpha" maskUnits="userSpaceOnUse" x="0" y="0" width="543" height="612">
<rect width="543" height="612" fill="#C4C4C4"/>
</mask>
<g mask="url(#mask0)">
<path opacity="0.7" d="M147.179 9.43304C62.6628 -9.85626 -18.301 78.0613 5.08585 132.078C28.4727 186.095 106.371 162.488 226.609 204.249C341.344 244.097 479.844 60.9011 433.13 25.8153C355.906 -32.1867 249.998 32.8995 147.179 9.43304Z" fill="url(#paint0_linear)"/>
<path opacity="0.7" d="M357.484 505.296C399.065 574.221 514.311 564.835 537.309 511.259C560.307 457.683 492.648 423.49 443.642 315.284C396.879 212.032 176.486 251.336 182.156 306.744C191.53 398.341 306.9 421.445 357.484 505.296Z" fill="url(#paint1_linear)"/>
<path opacity="0.7" d="M194.153 599.561C243.19 574.7 203.193 551.354 190.935 489.582C178.678 427.809 153.161 397.122 104.124 421.983C55.0871 446.844 47.0023 511.968 71.8631 561.005C96.7239 610.042 145.116 624.422 194.153 599.561Z" fill="url(#paint2_linear)"/>
<path opacity="0.6" d="M472.629 372.185H123.395V466.837H472.629V372.185Z" fill="#3F3D56"/>
<path opacity="0.5" d="M423.805 109.918C400.19 95.6039 369.443 103.143 355.129 126.758C347.004 140.162 345.92 155.865 350.82 169.555L447.647 147.758C446.142 132.644 437.794 118.397 423.805 109.918Z" fill="#C4C4C4"/>
<path opacity="0.7" d="M389.29 172.273L342.074 102.14C342.074 102.14 413.578 127.103 405.463 172.273H389.29Z" fill="#3F3D56"/>
<path opacity="0.5" d="M391.143 172.273L438.358 102.14C438.358 102.14 366.854 127.103 374.969 172.273H391.143Z" fill="#FF7A00"/>
<path opacity="0.7" d="M473.037 558.121C473.037 560.883 470.798 563.121 468.037 563.121H127.987C125.225 563.121 122.987 560.883 122.987 558.121V45.9024C122.987 43.141 125.225 40.9024 127.987 40.9024H468.037C470.798 40.9024 473.037 43.141 473.037 45.9024V558.121ZM124.619 556.489C124.619 559.251 126.857 561.489 129.619 561.489H466.405C469.166 561.489 471.405 559.251 471.405 556.489V47.5343C471.405 44.7729 469.166 42.5343 466.405 42.5343H129.619C126.857 42.5343 124.619 44.7729 124.619 47.5343V556.489Z" fill="#2F2E41"/>
<path opacity="0.7" d="M472 53H124V54.5H472V53Z" fill="#2F2E41"/>
<path opacity="0.7" d="M133.187 50.694C134.989 50.694 136.451 49.2327 136.451 47.4301C136.451 45.6275 134.989 44.1662 133.187 44.1662C131.384 44.1662 129.923 45.6275 129.923 47.4301C129.923 49.2327 131.384 50.694 133.187 50.694Z" fill="#FF7A00"/>
<path opacity="0.7" d="M142.162 50.694C143.964 50.694 145.426 49.2327 145.426 47.4301C145.426 45.6275 143.964 44.1662 142.162 44.1662C140.359 44.1662 138.898 45.6275 138.898 47.4301C138.898 49.2327 140.359 50.694 142.162 50.694Z" fill="#FF7A00"/>
<path opacity="0.7" d="M151.138 50.694C152.94 50.694 154.402 49.2327 154.402 47.4301C154.402 45.6275 152.94 44.1662 151.138 44.1662C149.335 44.1662 147.874 45.6275 147.874 47.4301C147.874 49.2327 149.335 50.694 151.138 50.694Z" fill="#FF7A00"/>
<path d="M151.138 64.5654H136.451V72.725H151.138V64.5654Z" fill="#FF7A00"/>
<path opacity="0.5" d="M208.256 129.027H136.451V137.186H208.256V129.027Z" fill="#FF7A00"/>
<path opacity="0.5" d="M391.848 72.7251L463.653 72.7251V64.5654L391.848 64.5654V72.7251Z" fill="#F2F2F2"/>
<path opacity="0.5" d="M257.214 142.898H136.451V147.794H257.214V142.898Z" fill="#F2F2F2"/>
<path opacity="0.5" d="M250.686 153.506H136.451V158.402H250.686V153.506Z" fill="#F2F2F2"/>
<path opacity="0.5" d="M219.679 164.113H136.451V169.009H219.679V164.113Z" fill="#F2F2F2"/>
<path opacity="0.5" d="M211.519 309.355H164.193V314.251H211.519V309.355Z" fill="#F2F2F2"/>
<path opacity="0.5" d="M208.961 319.963H164.193V324.859H208.961V319.963Z" fill="#F2F2F2"/>
<path opacity="0.5" d="M196.81 330.571H164.193V335.466H196.81V330.571Z" fill="#F2F2F2"/>
<path opacity="0.5" d="M321.675 309.355H274.349V314.251H321.675V309.355Z" fill="#F2F2F2"/>
<path opacity="0.5" d="M319.117 319.963H274.349V324.859H319.117V319.963Z" fill="#F2F2F2"/>
<path opacity="0.5" d="M306.965 330.571H274.349V335.466H306.965V330.571Z" fill="#F2F2F2"/>
<path opacity="0.5" d="M435.911 309.355H388.584V314.251H435.911V309.355Z" fill="#F2F2F2"/>
<path opacity="0.5" d="M433.352 319.963H388.584V324.859H433.352V319.963Z" fill="#F2F2F2"/>
<path opacity="0.5" d="M421.201 330.571H388.584V335.466H421.201V330.571Z" fill="#F2F2F2"/>
<path opacity="0.7" d="M309.435 494.58H237.63V502.74H309.435V494.58Z" fill="#FF7A00"/>
<path opacity="0.5" d="M358.393 508.451H237.63V513.347H358.393V508.451Z" fill="#F2F2F2"/>
<path opacity="0.5" d="M351.866 519.059H237.63V523.955H351.866V519.059Z" fill="#F2F2F2"/>
<path opacity="0.5" d="M320.859 529.667H237.63V534.562H320.859V529.667Z" fill="#F2F2F2"/>
<path opacity="0.3" d="M442.03 217.151H158.074V218.783H442.03V217.151Z" fill="#FF7A00"/>
<path opacity="0.3" d="M218.047 245.71H157.666V299.564H218.047V245.71Z" fill="#FF7A00"/>
<path opacity="0.6" d="M318.203 245.71H277.821C272.298 245.71 267.821 250.187 267.821 255.71V289.564C267.821 295.087 272.298 299.564 277.821 299.564H318.203C323.726 299.564 328.203 295.087 328.203 289.564V255.71C328.203 250.187 323.726 245.71 318.203 245.71Z" fill="#3F3D56"/>
<path opacity="0.6" d="M432.438 245.71H392.057C386.534 245.71 382.057 250.187 382.057 255.71V289.564C382.057 295.087 386.534 299.564 392.057 299.564H432.438C437.961 299.564 442.438 295.087 442.438 289.564V255.71C442.438 250.187 437.961 245.71 432.438 245.71Z" fill="#3F3D56"/>
<path opacity="0.7" d="M208.256 402.376H136.451V410.535H208.256V402.376Z" fill="#FF7A00"/>
<path opacity="0.5" d="M257.214 416.247H136.451V421.143H257.214V416.247Z" fill="#F2F2F2"/>
<path opacity="0.5" d="M250.686 426.855H136.451V431.751H250.686V426.855Z" fill="#F2F2F2"/>
<path opacity="0.5" d="M219.679 437.462H136.451V442.358H219.679V437.462Z" fill="#F2F2F2"/>
<path opacity="0.7" d="M402.254 439.133C416.336 439.133 427.751 427.718 427.751 413.636C427.751 399.554 416.336 388.139 402.254 388.139C388.172 388.139 376.757 399.554 376.757 413.636C376.757 427.718 388.172 439.133 402.254 439.133Z" fill="#FF7A00"/>
<path opacity="0.7" d="M355.064 443.7C364.943 443.7 372.95 435.692 372.95 425.814C372.95 415.935 364.943 407.928 355.064 407.928C345.186 407.928 337.178 415.935 337.178 425.814C337.178 435.692 345.186 443.7 355.064 443.7Z" fill="#FF7A00"/>
<path opacity="0.6" d="M200.65 224.492L161.969 212.895C156.679 211.309 151.105 214.312 149.519 219.602L139.797 252.03C138.211 257.32 141.214 262.895 146.504 264.481L185.185 276.077C190.475 277.663 196.049 274.66 197.635 269.37L207.357 236.942C208.943 231.652 205.94 226.078 200.65 224.492Z" fill="#3F3D56"/>
<path opacity="0.9" d="M173.078 254.588C171.017 254.035 169.3 253.078 167.925 251.716C166.584 250.335 165.663 248.722 165.164 246.877C164.697 245.012 164.737 243.063 165.282 241.028C165.841 238.941 166.788 237.208 168.125 235.826C169.461 234.445 171.036 233.514 172.849 233.034C174.668 232.528 176.596 232.547 178.63 233.092C181.67 233.907 183.884 235.742 185.272 238.599C185.522 239.107 185.537 239.567 185.316 239.977C185.096 240.388 184.709 240.698 184.156 240.909C183.726 241.07 183.303 241.053 182.885 240.858C182.475 240.638 182.138 240.299 181.874 239.842C180.971 238.164 179.579 237.073 177.699 236.57C175.715 236.038 173.926 236.276 172.331 237.285C170.742 238.267 169.655 239.853 169.068 242.042C168.695 243.433 168.648 244.746 168.924 245.979C169.227 247.22 169.807 248.3 170.665 249.22C171.53 250.114 172.644 250.744 174.01 251.11C175.761 251.58 177.299 251.508 178.622 250.897C179.124 250.672 179.597 250.606 180.042 250.697C180.494 250.763 180.849 250.983 181.108 251.356C181.449 251.834 181.583 252.311 181.511 252.789C181.445 253.241 181.183 253.598 180.726 253.862C178.409 255.091 175.86 255.333 173.078 254.588Z" fill="#FF7A00"/>
<path opacity="0.9" d="M300.008 284.16C297.875 284.16 295.968 283.68 294.288 282.72C292.635 281.733 291.328 280.413 290.368 278.76C289.435 277.08 288.968 275.187 288.968 273.08C288.968 270.92 289.435 269 290.368 267.32C291.302 265.64 292.582 264.333 294.208 263.4C295.835 262.44 297.702 261.96 299.808 261.96C302.955 261.96 305.568 263.16 307.648 265.56C308.022 265.987 308.155 266.427 308.048 266.88C307.942 267.333 307.648 267.733 307.168 268.08C306.795 268.347 306.382 268.44 305.928 268.36C305.475 268.253 305.062 268.013 304.688 267.64C303.382 266.253 301.755 265.56 299.808 265.56C297.755 265.56 296.088 266.253 294.808 267.64C293.528 269 292.888 270.813 292.888 273.08C292.888 274.52 293.182 275.8 293.768 276.92C294.382 278.04 295.222 278.933 296.288 279.6C297.355 280.24 298.595 280.56 300.008 280.56C301.822 280.56 303.288 280.093 304.408 279.16C304.835 278.813 305.275 278.627 305.728 278.6C306.182 278.547 306.582 278.667 306.928 278.96C307.382 279.333 307.635 279.76 307.688 280.24C307.742 280.693 307.582 281.107 307.208 281.48C305.288 283.267 302.888 284.16 300.008 284.16Z" fill="#FF7A00"/>
<path opacity="0.9" d="M414.008 284.16C411.875 284.16 409.968 283.68 408.288 282.72C406.635 281.733 405.328 280.413 404.368 278.76C403.435 277.08 402.968 275.187 402.968 273.08C402.968 270.92 403.435 269 404.368 267.32C405.302 265.64 406.582 264.333 408.208 263.4C409.835 262.44 411.702 261.96 413.808 261.96C416.955 261.96 419.568 263.16 421.648 265.56C422.022 265.987 422.155 266.427 422.048 266.88C421.942 267.333 421.648 267.733 421.168 268.08C420.795 268.347 420.382 268.44 419.928 268.36C419.475 268.253 419.062 268.013 418.688 267.64C417.382 266.253 415.755 265.56 413.808 265.56C411.755 265.56 410.088 266.253 408.808 267.64C407.528 269 406.888 270.813 406.888 273.08C406.888 274.52 407.182 275.8 407.768 276.92C408.382 278.04 409.222 278.933 410.288 279.6C411.355 280.24 412.595 280.56 414.008 280.56C415.822 280.56 417.288 280.093 418.408 279.16C418.835 278.813 419.275 278.627 419.728 278.6C420.182 278.547 420.582 278.667 420.928 278.96C421.382 279.333 421.635 279.76 421.688 280.24C421.742 280.693 421.582 281.107 421.208 281.48C419.288 283.267 416.888 284.16 414.008 284.16Z" fill="#FF7A00"/>
</g>
<defs>
<linearGradient id="paint0_linear" x1="37.5" y1="0.999996" x2="442" y2="210" gradientUnits="userSpaceOnUse">
<stop stop-color="#FF7A00" stop-opacity="0.9"/>
<stop offset="1" stop-color="#FF7A00" stop-opacity="0.4"/>
</linearGradient>
<linearGradient id="paint1_linear" x1="197.5" y1="328" x2="539" y2="497.5" gradientUnits="userSpaceOnUse">
<stop stop-color="#FF7A00" stop-opacity="0.9"/>
<stop offset="1" stop-color="#FF7A00" stop-opacity="0.3"/>
</linearGradient>
<linearGradient id="paint2_linear" x1="149.5" y1="413" x2="133" y2="616.5" gradientUnits="userSpaceOnUse">
<stop stop-color="#FF7A00" stop-opacity="0.9"/>
<stop offset="1" stop-color="#FF7A00" stop-opacity="0.3"/>
</linearGradient>
</defs>
</svg>
