<svg width="26" height="30" viewBox="0 0 26 30" fill="none" xmlns="http://www.w3.org/2000/svg">
<path fill-rule="evenodd" clip-rule="evenodd" d="M3.49741 1.1547L1 2.59658V5.48034L3.49741 6.92222L5.99482 5.48034V2.59658L3.49741 1.1547ZM6.99482 2.01923L3.49741 0L0 2.01923V6.05769L3.49741 8.07692L6.99482 6.05769V2.01923ZM12.7282 1.1547L10.2308 2.59658V5.48034L12.7282 6.92222L15.2256 5.48034V2.59658L12.7282 1.1547ZM16.2256 2.01923L12.7282 0L9.23077 2.01923V6.05769L12.7282 8.07692L16.2256 6.05769V2.01923ZM19.4615 2.59658L21.9589 1.1547L24.4564 2.59658V5.48034L21.9589 6.92222L19.4615 5.48034V2.59658ZM21.9589 0L25.4564 2.01923V6.05769L21.9589 8.07692L18.4615 6.05769V2.01923L21.9589 0ZM12.7282 8.73077C13.0043 8.73077 13.2282 8.95463 13.2282 9.23077V25.3314L13.5285 25.0311C13.7237 24.8358 14.0403 24.8358 14.2356 25.0311C14.4308 25.2263 14.4308 25.5429 14.2356 25.7382L13.0817 26.892C12.8865 27.0873 12.5699 27.0873 12.3746 26.892L11.2208 25.7382C11.0255 25.5429 11.0255 25.2263 11.2208 25.0311C11.416 24.8358 11.7326 24.8358 11.9279 25.0311L12.2282 25.3314V9.23077C12.2282 8.95463 12.452 8.73077 12.7282 8.73077ZM21.1814 9.56002C21.3632 9.3522 21.3422 9.03632 21.1344 8.85448C20.9265 8.67264 20.6107 8.6937 20.4288 8.90152L16.3904 13.5169C16.3106 13.608 16.2666 13.725 16.2666 13.8462V21.2929L15.9663 20.9926C15.7711 20.7973 15.4545 20.7973 15.2592 20.9926C15.064 21.1879 15.064 21.5044 15.2592 21.6997L16.4131 22.8536C16.5069 22.9473 16.634 23 16.7666 23C16.8992 23 17.0264 22.9473 17.1202 22.8536L18.274 21.6997C18.4693 21.5044 18.4693 21.1879 18.274 20.9926C18.0788 20.7973 17.7622 20.7973 17.5669 20.9926L17.2666 21.2929V14.034L21.1814 9.56002ZM4.89893 8.85448C4.69111 9.03632 4.67005 9.3522 4.85189 9.56002L8.76664 14.034V21.2929L8.46635 20.9926C8.27109 20.7973 7.9545 20.7973 7.75924 20.9926C7.56398 21.1879 7.56398 21.5044 7.75924 21.6997L8.91309 22.8536C9.00686 22.9473 9.13403 23 9.26664 23C9.39925 23 9.52643 22.9473 9.62019 22.8536L10.774 21.6997C10.9693 21.5044 10.9693 21.1879 10.774 20.9926C10.5788 20.7973 10.2622 20.7973 10.0669 20.9926L9.76664 21.2929V13.8462C9.76664 13.725 9.72268 13.608 9.64293 13.5169L5.60447 8.90152C5.42263 8.6937 5.10675 8.67264 4.89893 8.85448ZM12.7282 30C13.0468 30 13.3051 29.7417 13.3051 29.4231C13.3051 29.1045 13.0468 28.8462 12.7282 28.8462C12.4096 28.8462 12.1513 29.1045 12.1513 29.4231C12.1513 29.7417 12.4096 30 12.7282 30ZM14.4589 28.2692C14.4589 28.5879 14.2007 28.8462 13.882 28.8462C13.5634 28.8462 13.3051 28.5879 13.3051 28.2692C13.3051 27.9506 13.5634 27.6923 13.882 27.6923C14.2007 27.6923 14.4589 27.9506 14.4589 28.2692ZM11.5743 28.8462C11.893 28.8462 12.1513 28.5879 12.1513 28.2692C12.1513 27.9506 11.893 27.6923 11.5743 27.6923C11.2557 27.6923 10.9974 27.9506 10.9974 28.2692C10.9974 28.5879 11.2557 28.8462 11.5743 28.8462Z" fill="#0D1F22"/>
</svg>
