<svg width="30" height="30" viewBox="0 0 30 30" fill="none" xmlns="http://www.w3.org/2000/svg">
<path fill-rule="evenodd" clip-rule="evenodd" d="M4 6C4 5.72386 4.22386 5.5 4.5 5.5H29V1H1V29H29V6.5H4.5C4.22386 6.5 4 6.27614 4 6ZM1 0H0V1V29V30H1H29H30V29V6.5V6V5.5V1V0H29H1ZM2.5 2.5V2H3.5V2.5H4V3.5H3.5V4H2.5V3.5H2V2.5H2.5ZM5.5 2V2.5H5V3.5H5.5V4H6.5V3.5H7V2.5H6.5V2H5.5ZM8.5 2.5V2H9.5V2.5H10V3.5H9.5V4H8.5V3.5H8V2.5H8.5ZM23.8972 12.3037C24.021 12.1418 24.0341 11.9209 23.9303 11.7454C23.8266 11.57 23.6266 11.4751 23.4251 11.5056L6.9251 14.0056C6.71467 14.0375 6.5475 14.1991 6.50848 14.4083C6.46946 14.6175 6.56715 14.8285 6.75193 14.9341L10.1096 16.8528L12.0431 21.2031C12.1045 21.3413 12.2253 21.4443 12.3715 21.4832C12.5177 21.5221 12.6737 21.4927 12.7957 21.4032L15.0137 19.7767L16.7226 20.916C16.9419 21.0622 17.2371 21.0131 17.3972 20.8037L23.8972 12.3037ZM12 18.6439L11.178 16.7944L16.4272 14.9774L12.2764 17.0528C12.107 17.1375 12 17.3106 12 17.5V18.6439ZM8.49608 14.779L18.1834 13.3113L10.551 15.9532L8.49608 14.779ZM16.8875 19.8241L21.7888 13.4146L13.4942 17.5619L15.2774 18.7506L16.8875 19.8241ZM13 20.0133V18.4343L14.1279 19.1862L13 20.0133Z" fill="white"/>
</svg>
