<svg width="31" height="31" viewBox="0 0 31 31" fill="none" xmlns="http://www.w3.org/2000/svg">
<path fill-rule="evenodd" clip-rule="evenodd" d="M11.5152 9.40296C13.7521 5.68158 17.3048 3.0847 21.322 1.99607C21.3351 2.01304 21.3494 2.02937 21.3649 2.04492L28.3417 9.02167C28.3861 9.06606 28.4367 9.10036 28.4908 9.12456C27.4073 13.1548 24.8065 16.7203 21.0754 18.963C20.9615 18.9845 20.8577 19.0452 20.7833 19.1345C20.7448 19.1566 20.7061 19.1786 20.6673 19.2004L15.4785 22.1216L14.0236 22.9407L10.7806 19.6976L10.775 19.6922L7.53754 16.4547L8.35663 14.9998L11.2778 9.81099C11.2997 9.77223 11.3216 9.73358 11.3437 9.69505C11.433 9.6206 11.4938 9.51688 11.5152 9.40296ZM28.7485 8.01425L22.4641 1.72985C24.5003 1.3311 26.6315 1.31382 28.7532 1.72511C29.1645 3.84683 29.1472 5.97805 28.7485 8.01425ZM10.0735 20.4049L10.079 20.4103L13.5848 23.9161C13.7434 24.0747 13.9882 24.1083 14.1836 23.9982L14.664 23.7278L14.3343 29.6624C14.3228 29.8694 14.4402 30.062 14.6294 30.1466C14.8186 30.2312 15.0405 30.1903 15.187 30.0437L18.1407 27.09C19.4095 25.8212 20.332 24.2485 20.8201 22.5218L21.5825 19.8249C27.9625 15.9948 31.23 8.51998 29.6685 1.20837C29.6634 1.18171 29.6562 1.15566 29.647 1.13044C29.6014 1.00444 29.5084 0.905595 29.3931 0.850263C29.3531 0.831084 29.3105 0.817134 29.2663 0.809092C21.9558 -0.75055 14.4828 2.51688 10.6533 8.89581L7.95645 9.65822C6.22979 10.1463 4.65702 11.0688 3.38824 12.3376L0.434548 15.2913C0.28797 15.4379 0.247037 15.6597 0.331648 15.8489C0.416259 16.0382 0.608863 16.1556 0.815836 16.1441L6.75045 15.8144L6.48003 16.2947C6.37 16.4902 6.40358 16.735 6.56218 16.8936L10.0735 20.4049ZM20.344 20.53L19.8578 22.2498C19.4162 23.812 18.5816 25.235 17.4336 26.3829L15.4053 28.4112L15.6978 23.1457L15.9691 22.993L20.344 20.53ZM9.94821 10.1343L8.22849 10.6205C6.66627 11.0621 5.24329 11.8968 4.09534 13.0447L2.06703 15.073L7.3325 14.7805L7.48523 14.5092L9.94821 10.1343ZM21.0114 13.1936C19.957 14.248 18.2474 14.248 17.193 13.1936C16.1386 12.1391 16.1386 10.4296 17.193 9.37521C18.2474 8.3208 19.957 8.3208 21.0114 9.37521C22.0658 10.4296 22.0658 12.1391 21.0114 13.1936ZM21.7185 13.9007C20.2735 15.3456 17.9308 15.3456 16.4859 13.9007C15.041 12.4557 15.041 10.113 16.4859 8.6681C17.9308 7.22317 20.2735 7.22317 21.7185 8.6681C23.1634 10.113 23.1634 12.4557 21.7185 13.9007ZM7.58513 25.4224C7.12218 25.8853 6.01489 26.5818 4.8573 27.0137C4.28725 27.2263 3.772 27.3488 3.37202 27.3675C2.95042 27.3873 2.83361 27.2876 2.82551 27.2795C2.81741 27.2714 2.71776 27.1546 2.73754 26.733C2.7563 26.3331 2.87875 25.8178 3.0914 25.2478C3.52323 24.0902 4.21973 22.9829 4.68268 22.5199C5.478 21.7246 6.77425 21.7234 7.57796 22.5271C8.38167 23.3308 8.38045 24.6271 7.58513 25.4224ZM8.29224 26.1295C7.10419 27.3175 3.31042 29.1787 2.11841 27.9866C0.926394 26.7946 2.78752 23.0009 3.97558 21.8128C5.16363 20.6248 7.09306 20.628 8.28507 21.82C9.47708 23.012 9.48029 24.9414 8.29224 26.1295Z" fill="#0D1F22"/>
</svg>
