<svg width="31" height="31" viewBox="0 0 31 31" fill="none" xmlns="http://www.w3.org/2000/svg">
<path fill-rule="evenodd" clip-rule="evenodd" d="M3.74606 3.4514C3.91432 3.42144 4.08623 3.4795 4.20187 3.60535L5.85389 5.40314L7.12058 5.00157L7.52215 3.73487L5.72436 2.08286C5.59852 1.96722 5.54046 1.79531 5.57042 1.62704C5.60038 1.45878 5.71421 1.31748 5.87224 1.25238C7.61932 0.532727 9.72786 0.917335 11.1749 2.36442C12.3722 3.56167 12.8433 5.21659 12.5604 6.74215L18.1631 12.3448L24.0868 6.54981L22.9482 5.41117C22.8393 5.3023 22.7867 5.14934 22.8055 4.99652C22.8243 4.84371 22.9125 4.70808 23.0445 4.62887L26.7848 2.38471C26.9815 2.26667 27.2333 2.29767 27.3956 2.45991L28.8917 3.95601C29.0539 4.11824 29.0849 4.37007 28.9668 4.56681L26.7227 8.30706C26.6435 8.43909 26.5079 8.52726 26.355 8.54607C26.2022 8.56488 26.0493 8.51224 25.9404 8.40337L24.794 7.25696L18.8702 13.052L19.1406 13.3224L19.1427 13.3245L25.1497 19.3314C26.6753 19.0485 28.3302 19.5197 29.5274 20.7169C30.9745 22.164 31.3591 24.2725 30.6395 26.0196C30.5744 26.1776 30.4331 26.2915 30.2648 26.3214C30.0965 26.3514 29.9246 26.2933 29.809 26.1675L28.157 24.3697L26.8903 24.7713L26.4887 26.038L28.2865 27.69C28.4123 27.8056 28.4704 27.9775 28.4404 28.1458C28.4105 28.3141 28.2966 28.4554 28.1386 28.5205C26.3915 29.2401 24.283 28.8555 22.8359 27.4084C21.6387 26.2112 21.1675 24.5563 21.4504 23.0308L15.1303 16.7107L14.214 17.607L16.7681 20.1611C16.9633 20.3563 16.9633 20.6729 16.7681 20.8682L14.1476 23.4886L6.94138 30.6949C6.74611 30.8901 6.42953 30.8901 6.23427 30.6949L4.26893 28.7295L3.61382 28.0744L2.95871 27.4193L0.99337 25.454C0.798108 25.2587 0.798108 24.9421 0.99337 24.7469L10.8201 14.9202C11.0153 14.7249 11.3319 14.7249 11.5272 14.9202L13.5069 16.8999L14.4232 16.0035L8.86107 10.4414C7.33554 10.7243 5.68066 10.2532 4.48343 9.05593C3.03635 7.60885 2.65174 5.50031 3.3714 3.75323C3.43649 3.5952 3.57779 3.48137 3.74606 3.4514ZM16.1505 16.3166L21.7885 21.9547C22.0109 21.4653 22.3226 21.0078 22.7247 20.6057C23.1268 20.2036 23.5843 19.892 24.0736 19.6695L17.8622 13.4582L17.8601 13.4561L12.2223 7.81826C11.9999 8.30759 11.6882 8.76508 11.2862 9.16714C10.8841 9.56922 10.4266 9.88091 9.9372 10.1033L16.1484 16.3146L16.1505 16.3166ZM4.06825 4.93786C3.87378 6.12085 4.24644 7.40473 5.19054 8.34883C6.72152 9.8798 9.13381 9.90527 10.579 8.46003C12.0243 7.0148 11.9988 4.6025 10.4678 3.07153C9.52374 2.12743 8.23986 1.75477 7.05687 1.94923L8.43336 3.21411C8.57646 3.34561 8.6304 3.54811 8.57167 3.73337L7.99547 5.55093C7.94634 5.70591 7.82493 5.82733 7.66995 5.87646L5.85239 6.45266C5.66713 6.51139 5.46462 6.45745 5.33312 6.31435L4.06825 4.93786ZM26.954 27.8236C25.771 28.0181 24.4871 27.6454 23.543 26.7013C22.012 25.1703 21.9866 22.7581 23.4318 21.3128C24.8771 19.8676 27.2893 19.893 28.8203 21.424C29.7644 22.3681 30.1371 23.652 29.9426 24.835L28.6777 23.4585C28.5462 23.3154 28.3437 23.2615 28.1585 23.3202L26.3409 23.8964C26.1859 23.9455 26.0645 24.0669 26.0154 24.2219L25.4392 26.0395C25.3805 26.2247 25.4344 26.4272 25.5775 26.5587L26.954 27.8236ZM2.05403 25.1004L3.31226 26.3586L6.88938 22.7815C7.08464 22.5863 7.40122 22.5863 7.59649 22.7815C7.79175 22.9768 7.79175 23.2934 7.59649 23.4886L4.01937 27.0657L4.32093 27.3673L4.62249 27.6689L8.19961 24.0917C8.39487 23.8965 8.71145 23.8965 8.90671 24.0917C9.10197 24.287 9.10197 24.6036 8.90671 24.7988L5.32959 28.376L6.58782 29.6342L13.0869 23.1351L9.83738 19.8855C9.64212 19.6902 9.64212 19.3737 9.83738 19.1784C10.0326 18.9831 10.3492 18.9831 10.5445 19.1784L13.7941 22.428L15.7074 20.5146L11.1736 15.9808L2.05403 25.1004ZM25.1514 6.20016L24.1081 5.15688L26.9645 3.44306L27.9085 4.38707L26.1947 7.24344L25.1514 6.20016Z" fill="white"/>
</svg>
