<svg width="90" height="90" viewBox="0 0 90 90" fill="none" xmlns="http://www.w3.org/2000/svg">
<path d="M82.8364 69.6089C77.9434 69.4846 74.1511 69.9835 70.9705 71.3551C70.0529 71.729 68.5848 71.7293 68.4624 72.9142C68.9518 73.4132 69.013 74.2239 69.4412 74.9096C70.176 76.1565 71.4595 77.8403 72.6218 78.7138C73.906 79.7113 75.191 80.7087 76.5361 81.5819C78.9218 83.0786 81.6133 83.9513 83.9375 85.4481C85.2837 86.3205 86.6284 87.4438 87.9742 88.3789C88.6471 88.8771 89.0749 89.6885 89.9317 90V89.8133C89.5031 89.2516 89.3808 88.4412 88.9529 87.8176C88.3419 87.1939 87.7295 86.6327 87.1178 86.009C85.3441 83.5775 83.1423 81.4571 80.7569 79.7113C78.7998 78.3392 74.5178 76.4687 73.7229 74.1612C73.7229 74.1612 73.6614 74.0992 73.6005 74.0368C74.946 73.9121 76.5361 73.4132 77.821 73.039C79.9005 72.4773 81.7965 72.6024 83.9375 72.0411C84.9159 71.7917 85.8947 71.4799 86.8731 71.168V70.6071C85.7727 69.4845 84.9774 67.9882 83.8152 66.928C80.6958 64.1836 77.2701 61.5026 73.7229 59.2578C71.8266 58.0105 69.3797 57.1998 67.3614 56.14C66.628 55.7654 65.4042 55.5787 64.9763 54.955C63.8749 53.5834 63.2632 51.7751 62.4683 50.1537C60.695 46.7236 58.9819 42.9201 57.4526 39.3037C56.3522 36.8714 55.6793 34.4392 54.3335 32.1948C48.0335 21.5939 41.183 15.1711 30.6628 8.87259C28.3994 7.56329 25.7082 7.00201 22.8335 6.31636C21.3049 6.25364 19.7753 6.12927 18.2463 6.06654C17.2676 5.62999 16.2888 4.44542 15.4324 3.88414C11.9467 1.63901 2.95475 -3.22435 0.385887 3.19849C-1.26575 7.25147 2.83276 11.2421 4.23901 13.3005C5.27964 14.7345 6.62471 16.3556 7.35878 17.9771C7.78698 19.0366 7.90897 20.1599 8.33718 21.2821C9.31628 24.025 10.2332 27.0813 11.5181 29.6382C12.191 30.9475 12.9247 32.3192 13.7811 33.5041C14.2705 34.1898 15.1266 34.5019 15.3104 35.6241C14.4544 36.8714 14.3928 38.7424 13.9031 40.3011C11.7013 47.3476 12.558 56.0776 15.6771 61.2531C16.6555 62.8115 18.98 66.2423 22.0994 64.9323C24.8522 63.8101 24.2405 60.2557 25.035 57.1378C25.2192 56.3887 25.0969 55.8905 25.4635 55.3916V55.5167C26.3199 57.2622 27.176 58.9464 27.9712 60.6922C29.8676 63.7474 33.1701 66.928 35.9225 69.0483C37.391 70.1702 38.5529 72.1035 40.3881 72.7895V72.6021H40.2654C39.8983 72.0408 39.3478 71.7917 38.8588 71.3548C37.758 70.2329 36.5342 68.8609 35.6782 67.6136C33.1097 64.1212 30.846 60.2553 28.8276 56.2643C27.8492 54.3317 26.9925 52.2113 26.1976 50.2784C25.8302 49.5293 25.8302 48.4075 25.2189 48.0336C24.3013 49.4053 22.9558 50.5902 22.283 52.2737C21.1214 54.955 20.9987 58.26 20.5705 61.6893C20.3258 61.7524 20.4478 61.6893 20.3255 61.8148C18.3687 61.3151 17.6958 59.2578 16.9614 57.5116C15.1262 53.0844 14.8203 45.9756 16.4112 40.8624C16.8394 39.5528 18.6745 35.4374 17.9405 34.1901C17.5734 33.0052 16.3496 32.3192 15.6771 31.3841C14.8822 30.1991 14.0255 28.7031 13.4753 27.3931C12.0071 23.901 11.2731 20.0348 9.68296 16.5427C8.94889 14.9212 7.66499 13.2381 6.62471 11.7414C5.4628 10.0579 4.17819 8.87259 3.26061 6.87728C2.95511 6.19163 2.52655 5.06907 3.01593 4.32069C3.13827 3.82178 3.38261 3.63504 3.87233 3.51031C4.66757 2.82394 6.93093 3.69705 7.72546 4.07123C9.98882 5.00599 11.8848 5.87981 13.7811 7.18911C14.6372 7.81275 15.5548 8.99768 16.6555 9.3095H17.9401C19.8976 9.7457 22.0991 9.43423 23.9342 9.99515C27.1764 11.055 30.1119 12.6141 32.7423 14.298C40.7551 19.4735 47.3603 26.8318 51.8258 35.6241C52.5599 37.0578 52.8654 38.3682 53.5383 39.8642C54.8232 42.9201 56.4133 46.038 57.6973 49.0311C58.9819 51.9615 60.2049 54.955 62.0401 57.3872C62.9577 58.6962 66.6273 59.3826 68.2789 60.0686C69.5024 60.6295 71.3987 61.1288 72.4994 61.8144C74.5789 63.1234 76.6584 64.6208 78.6159 66.0545C79.5947 66.8029 82.6526 68.362 82.8364 69.6089Z" fill="#F88D00"/>
<path d="M20.4472 15.4198C19.4076 15.4198 18.6739 15.5452 17.9398 15.732V15.8567H18.0622C18.5519 16.8545 19.4076 17.5405 20.019 18.4133C20.5087 19.4108 20.9365 20.4089 21.4263 21.4068C21.4871 21.3441 21.5483 21.2821 21.5483 21.2821C22.405 20.658 22.8329 19.6606 22.8329 18.1638C22.4658 17.7276 22.4047 17.2911 22.0988 16.8545C21.7321 16.2305 20.9365 15.9191 20.4472 15.4198Z" fill="#F88D00"/>
</svg>
