<svg width="82" height="90" viewBox="0 0 82 90" fill="none" xmlns="http://www.w3.org/2000/svg">
<path d="M37.1506 0.960173C39.3822 -0.317171 42.2889 -0.322941 44.5185 0.960173C55.7358 7.29849 66.9565 13.6269 78.1718 19.969C80.2813 21.1573 81.6923 23.5049 81.6708 25.9355V64.0693C81.6865 66.6006 80.1361 69.0043 77.9106 70.1656C66.7302 76.469 55.5556 82.7801 44.3772 89.0835C42.0994 90.3858 39.1345 90.2855 36.9279 88.8764C33.576 86.9333 30.2184 84.9998 26.8662 83.0587C26.1812 82.6503 25.409 82.3253 24.9253 81.6611C25.3529 81.0848 26.1174 81.013 26.7386 80.7613C28.1378 80.3164 29.4228 79.6023 30.7082 78.9093C31.0332 78.6868 31.43 78.7721 31.7416 78.9711C34.6078 80.6145 37.4487 82.3057 40.3246 83.9334C40.9381 84.2876 41.5593 83.8174 42.0837 83.525C53.0551 77.3242 64.04 71.1468 75.0094 64.9441C75.4159 64.7485 75.6405 64.3171 75.6075 63.8719C75.6152 51.2924 75.6095 38.7106 75.6114 26.1311C75.6579 25.6259 75.3655 25.1614 74.9088 24.9547C63.7672 18.6802 52.6314 12.396 41.4917 6.11988C41.2987 5.98719 41.0701 5.916 40.8359 5.91565C40.6016 5.91531 40.3728 5.98583 40.1794 6.11795C29.0398 12.396 17.9059 18.6859 6.76619 24.9601C6.31103 25.1672 6.00556 25.624 6.05973 26.1311C6.06165 38.7106 6.05973 51.2924 6.05973 63.8738C6.04041 64.091 6.08812 64.309 6.19644 64.4983C6.30476 64.6876 6.46847 64.8391 6.66555 64.9325C9.63822 66.6182 12.6147 68.2921 15.5893 69.972C17.2651 70.874 19.3226 71.41 21.1689 70.7189C22.7982 70.1346 23.9403 68.4719 23.9092 66.742C23.9246 54.2359 23.9015 41.7278 23.9208 29.2236C23.88 28.6685 24.4067 28.2098 24.9465 28.262C26.3748 28.2524 27.805 28.2428 29.2334 28.2659C29.8296 28.2524 30.2398 28.8502 30.1661 29.4095C30.1603 41.9948 30.1815 54.5804 30.1565 67.1657C30.1603 70.5198 28.7824 74.1695 25.6799 75.8106C21.8578 77.7906 17.1337 77.3707 13.3577 75.4722C10.0889 73.8406 6.96942 71.9151 3.75859 70.1672C1.52732 69.0123 -0.0154305 66.599 0.000275887 64.0696V25.9355C-0.0231234 23.4546 1.44398 21.0643 3.61915 19.8934C14.7976 13.5849 25.9741 7.27157 37.1506 0.960173Z" fill="#F88D00"/>
<path d="M46.9026 27.3757C51.778 27.0619 56.9973 27.1898 61.3845 29.5916C64.7813 31.4321 66.6644 35.2949 66.7244 39.0686C66.6295 39.5776 66.0974 39.8584 65.6115 39.8235C64.1969 39.8215 62.7821 39.8427 61.3676 39.8138C60.7675 39.8369 60.4188 39.2837 60.3434 38.7532C59.937 36.9476 58.9523 35.1593 57.2528 34.2884C54.6439 32.9822 51.619 33.0479 48.7742 33.0752C46.6975 33.1854 44.4643 33.3653 42.7049 34.5865C41.3541 35.5116 40.9438 37.379 41.4259 38.883C41.8804 39.9629 43.127 40.3113 44.147 40.6325C50.0224 42.1692 56.2486 42.0163 62.0118 44.0385C64.3979 44.863 66.7321 46.4657 67.5488 48.9639C68.6172 52.3123 68.1489 56.3145 65.7666 59.0025C63.8347 61.2146 61.0211 62.4185 58.2147 63.0724C54.4814 63.9048 50.6071 63.926 46.8158 63.5564C43.2507 63.15 39.5408 62.2134 36.7887 59.7843C34.4353 57.7409 33.2858 54.557 33.4 51.484C33.4272 50.965 33.9439 50.6032 34.4411 50.6458C35.8655 50.6343 37.29 50.6304 38.7145 50.6477C39.2834 50.607 39.7053 51.0987 39.7344 51.635C39.9973 53.3553 40.6438 55.1609 42.1439 56.1808C45.039 58.0486 48.6717 57.9207 51.9867 57.973C54.7331 57.8512 57.816 57.8143 60.0572 55.9991C61.2397 54.9638 61.59 53.2316 61.2704 51.7414C60.9243 50.4833 59.6081 49.897 58.4779 49.5136C52.6778 47.6789 46.3821 48.3446 40.638 46.2698C38.3061 45.4457 36.0511 43.8876 35.1552 41.4919C33.9051 38.1012 34.4779 33.9073 37.1099 31.31C39.6761 28.7264 43.3806 27.7318 46.9026 27.3757Z" fill="#F88D00"/>
</svg>
