<svg width="22" height="30" viewBox="0 0 22 30" fill="none" xmlns="http://www.w3.org/2000/svg">
<path fill-rule="evenodd" clip-rule="evenodd" d="M4.89796 0.5C4.89796 0.223858 5.12182 0 5.39796 0H15.1939C15.47 0 15.6939 0.223858 15.6939 0.5V2.12055C15.6939 2.51838 15.8519 2.89991 16.1332 3.18121L17.2377 4.28571H21.3163C21.5925 4.28571 21.8163 4.50957 21.8163 4.78571V29.2755C21.8163 29.5517 21.5925 29.7755 21.3163 29.7755H0.5C0.223858 29.7755 0 29.5517 0 29.2755V4.78571C0 4.50957 0.223858 4.28571 0.5 4.28571H3.35412L4.45862 3.18121C4.73992 2.89991 4.89796 2.51838 4.89796 2.12055V0.5ZM3.06122 5.28571H1V28.7755H20.8163V5.28571H17.5306V6.62245C17.5306 6.89859 17.3068 7.12245 17.0306 7.12245H3.56122C3.28508 7.12245 3.06122 6.89859 3.06122 6.62245V5.28571ZM16.5306 4.99282L15.4261 3.88832C14.9573 3.41948 14.6939 2.78359 14.6939 2.12055V1H5.89796V2.12055C5.89796 2.78359 5.63457 3.41948 5.16573 3.88832L4.06122 4.99282V6.12245H16.5306V4.99282ZM7.58825 8.71788C7.78351 8.91314 7.78351 9.22972 7.58825 9.42498L5.75151 11.2617C5.55625 11.457 5.23967 11.457 5.04441 11.2617L3.81992 10.0372C3.62465 9.84197 3.62465 9.52538 3.81992 9.33012C4.01518 9.13486 4.33176 9.13486 4.52702 9.33012L5.39796 10.2011L6.88114 8.71788C7.0764 8.52261 7.39298 8.52261 7.58825 8.71788ZM7.58825 14.3229C7.78351 14.1277 7.78351 13.8111 7.58825 13.6158C7.39298 13.4206 7.0764 13.4206 6.88114 13.6158L5.39796 15.099L4.52702 14.2281C4.33176 14.0328 4.01518 14.0328 3.81992 14.2281C3.62465 14.4233 3.62465 14.7399 3.81992 14.9352L5.04441 16.1597C5.23967 16.3549 5.55625 16.3549 5.75151 16.1597L7.58825 14.3229ZM7.58825 18.5138C7.78351 18.7091 7.78351 19.0256 7.58825 19.2209L5.75151 21.0576C5.55625 21.2529 5.23967 21.2529 5.04441 21.0576L3.81992 19.8331C3.62465 19.6379 3.62465 19.3213 3.81992 19.126C4.01518 18.9308 4.33176 18.9308 4.52702 19.126L5.39796 19.997L6.88114 18.5138C7.0764 18.3185 7.39298 18.3185 7.58825 18.5138ZM7.58825 24.1189C7.78351 23.9236 7.78351 23.607 7.58825 23.4118C7.39298 23.2165 7.0764 23.2165 6.88114 23.4118L5.39796 24.8949L4.52702 24.024C4.33176 23.8287 4.01518 23.8287 3.81992 24.024C3.62465 24.2193 3.62465 24.5358 3.81992 24.7311L5.04441 25.9556C5.23967 26.1509 5.55625 26.1509 5.75151 25.9556L7.58825 24.1189ZM11.6327 9.68367C11.6327 9.40753 11.8565 9.18367 12.1327 9.18367H17.0306C17.3068 9.18367 17.5306 9.40753 17.5306 9.68367C17.5306 9.95982 17.3068 10.1837 17.0306 10.1837H12.1327C11.8565 10.1837 11.6327 9.95982 11.6327 9.68367ZM12.1327 14.0816C11.8565 14.0816 11.6327 14.3055 11.6327 14.5816C11.6327 14.8578 11.8565 15.0816 12.1327 15.0816H17.0306C17.3068 15.0816 17.5306 14.8578 17.5306 14.5816C17.5306 14.3055 17.3068 14.0816 17.0306 14.0816H12.1327ZM11.6327 19.4796C11.6327 19.2034 11.8565 18.9796 12.1327 18.9796H17.0306C17.3068 18.9796 17.5306 19.2034 17.5306 19.4796C17.5306 19.7557 17.3068 19.9796 17.0306 19.9796H12.1327C11.8565 19.9796 11.6327 19.7557 11.6327 19.4796ZM12.1327 23.8776C11.8565 23.8776 11.6327 24.1014 11.6327 24.3776C11.6327 24.6537 11.8565 24.8776 12.1327 24.8776H17.0306C17.3068 24.8776 17.5306 24.6537 17.5306 24.3776C17.5306 24.1014 17.3068 23.8776 17.0306 23.8776H12.1327Z" fill="#0D1F22"/>
</svg>
